<svg xmlns="http://www.w3.org/2000/svg" width="24" height="23" viewBox="0 0 24 23">
    <path fill="#FFF" d="M21.391 12.023V9.948c0-2.315-1.88-4.198-4.19-4.198h-4.68V4.108c.9-.235 1.566-1.045 1.566-2.017C14.087.937 13.151 0 12 0c-1.151 0-2.087.937-2.087 2.09 0 .973.669 1.783 1.565 2.018V5.75h-4.68c-2.308 0-4.19 1.883-4.19 4.198v2.075H0v6.272h2.609V23H21.39v-4.705H24v-6.272h-2.609zm-8.348 6.272v3.66h-2.086v-3.66h2.086zm-6.26-6.01c0-1.012.817-1.83 1.826-1.83 1.009 0 1.826.818 1.826 1.83 0 1.01-.817 1.829-1.826 1.829-1.01 0-1.826-.82-1.826-1.83zm1.043 6.01h2.087v3.66H7.826v-3.66zm8.348 3.66h-2.087v-3.66h2.087v3.66zm-.783-7.841c-1.009 0-1.826-.82-1.826-1.83 0-1.01.817-1.83 1.826-1.83 1.01 0 1.826.82 1.826 1.83 0 1.01-.817 1.83-1.826 1.83z"/>
</svg>