<?xml version="1.0" encoding="utf-8"?><svg xmlns="http://www.w3.org/2000/svg" xmlns:xlink="http://www.w3.org/1999/xlink"><symbol viewBox="0 0 11 12" id="actions-icons--copy" xmlns="http://www.w3.org/2000/svg"><path d="M3.36 0a.96.96 0 00-.96.96v7.68c0 .53.43.96.96.96H9.6c.53 0 .96-.43.96-.96V3.12c0-.127-.05-.25-.14-.34L7.78.14A.483.483 0 007.44 0H3.36zM7.2.914L9.646 3.36H7.68a.48.48 0 01-.48-.48V.914zM.96 2.4a.96.96 0 00-.96.96v7.68c0 .53.43.96.96.96H7.2c.53 0 .96-.43.96-.96v-.48h-4.8a1.922 1.922 0 01-1.92-1.92V2.4H.96z"/></symbol><symbol viewBox="0 0 10 12" id="actions-icons--delete" xmlns="http://www.w3.org/2000/svg"><path d="M.714 10.667C.714 11.4 1.357 12 2.143 12h5.714c.786 0 1.429-.6 1.429-1.333v-8H.714v8zM10 .667H7.5L6.786 0H3.214L2.5.667H0V2h10V.667z"/></symbol><symbol viewBox="0 0 20 20" id="add-plus" xmlns="http://www.w3.org/2000/svg"><path d="M10 0C4.478 0 0 4.478 0 10c0 5.523 4.478 10 10 10 5.523 0 10-4.477 10-10 0-5.522-4.477-10-10-10zm4.167 10.833h-3.334v3.334a.833.833 0 01-1.666 0v-3.334H5.833a.832.832 0 110-1.666h3.334V5.833a.833.833 0 011.666 0v3.334h3.334a.832.832 0 110 1.666z"/></symbol><symbol viewBox="0 0 11 18" id="btn-edit--ad" xmlns="http://www.w3.org/2000/svg"><path d="M9 4a2 2 0 100-4 2 2 0 000 4zM2 4a2 2 0 100-4 2 2 0 000 4zm0 7a2 2 0 100-4 2 2 0 000 4zm0 7a2 2 0 100-4 2 2 0 000 4zm7 0a2 2 0 100-4 2 2 0 000 4zm0-7a2 2 0 100-4 2 2 0 000 4z"/></symbol><symbol viewBox="0 0 14 18" id="btn-edit--bin" xmlns="http://www.w3.org/2000/svg"><path d="M1 16c0 1.1.9 2 2 2h8c1.1 0 2-.9 2-2V4H1v12zM14 1h-3.5l-1-1h-5l-1 1H0v2h14V1z"/></symbol><symbol viewBox="0 0 18 19" id="btn-edit--settings" xmlns="http://www.w3.org/2000/svg"><path d="M17.672 7.522l-2.313-.378a6.609 6.609 0 00-.552-1.333l1.35-1.924a.392.392 0 00-.044-.502l-1.522-1.52a.39.39 0 00-.505-.041l-1.895 1.362a6.547 6.547 0 00-1.343-.559L10.444.324A.391.391 0 0010.059 0H7.906a.392.392 0 00-.386.328l-.374 2.291c-.47.135-.92.32-1.345.553l-1.89-1.35a.392.392 0 00-.505.041l-1.52 1.521a.39.39 0 00-.044.501l1.33 1.903a6.606 6.606 0 00-.563 1.354l-2.282.38A.392.392 0 000 7.908v2.153c0 .19.136.352.323.385l2.282.405c.136.47.325.924.562 1.354l-1.346 1.883a.393.393 0 00.041.505l1.522 1.522a.39.39 0 00.501.044l1.906-1.335c.428.235.88.422 1.348.558l.382 2.293a.39.39 0 00.385.327h2.153c.19 0 .352-.137.385-.323l.409-2.305a6.52 6.52 0 001.342-.562l1.92 1.347a.39.39 0 00.501-.044l1.522-1.522a.392.392 0 00.04-.506l-1.368-1.9c.232-.423.416-.87.55-1.334l2.316-.407a.391.391 0 00.324-.385V7.908a.391.391 0 00-.328-.386zM8.999 11.74a2.74 2.74 0 110-5.481 2.74 2.74 0 010 5.482v-.001z"/></symbol><symbol viewBox="0 0 15 15" id="close" xmlns="http://www.w3.org/2000/svg"><path d="M300.188 246L484.14 62.04c5.06-5.064 7.852-11.82 7.86-19.024 0-7.208-2.792-13.972-7.86-19.028L468.02 7.872C462.952 2.796 456.196.016 448.984.016c-7.2 0-13.956 2.78-19.024 7.856L246.008 191.82 62.048 7.872C56.988 2.796 50.228.016 43.02.016c-7.2 0-13.96 2.78-19.02 7.856L7.872 23.988c-10.496 10.496-10.496 27.568 0 38.052L191.828 246 7.872 429.952C2.808 435.024.02 441.78.02 448.984c0 7.204 2.788 13.96 7.852 19.028l16.124 16.116c5.06 5.072 11.824 7.856 19.02 7.856 7.208 0 13.968-2.784 19.028-7.856l183.96-183.952 183.952 183.952c5.068 5.072 11.824 7.856 19.024 7.856h.008c7.204 0 13.96-2.784 19.028-7.856l16.12-16.116c5.06-5.064 7.852-11.824 7.852-19.028 0-7.204-2.792-13.96-7.852-19.028L300.188 246z"/></symbol><symbol viewBox="0 0 492 492" id="close_(2)" xmlns="http://www.w3.org/2000/svg"><path d="M300.188 246L484.14 62.04c5.06-5.064 7.852-11.82 7.86-19.024 0-7.208-2.792-13.972-7.86-19.028L468.02 7.872C462.952 2.796 456.196.016 448.984.016c-7.2 0-13.956 2.78-19.024 7.856L246.008 191.82 62.048 7.872C56.988 2.796 50.228.016 43.02.016c-7.2 0-13.96 2.78-19.02 7.856L7.872 23.988c-10.496 10.496-10.496 27.568 0 38.052L191.828 246 7.872 429.952C2.808 435.024.02 441.78.02 448.984c0 7.204 2.788 13.96 7.852 19.028l16.124 16.116c5.06 5.072 11.824 7.856 19.02 7.856 7.208 0 13.968-2.784 19.028-7.856l183.96-183.952 183.952 183.952c5.068 5.072 11.824 7.856 19.024 7.856h.008c7.204 0 13.96-2.784 19.028-7.856l16.12-16.116c5.06-5.064 7.852-11.824 7.852-19.028 0-7.204-2.792-13.96-7.852-19.028L300.188 246z" data-original="#000000" class="ahactive-path" data-old_color="#000000"/></symbol><symbol viewBox="0 0 10 10" id="icon-close-btn" xmlns="http://www.w3.org/2000/svg"><path d="M1.49.49a1.001 1.001 0 00-.697 1.717L3.586 5 .793 7.793a.999.999 0 00.44 1.689 1 1 0 00.974-.275L5 6.414l2.793 2.793a.999.999 0 001.689-.44 1 1 0 00-.275-.974L6.414 5l2.793-2.793A1 1 0 107.793.793L5 3.586 2.207.793A.999.999 0 001.489.49z"/></symbol><symbol viewBox="0 0 54 46" id="icon-code" xmlns="http://www.w3.org/2000/svg"><path d="M4.154 0A4.153 4.153 0 000 4.154v41.538h54V4.154A4.153 4.153 0 0049.846 0H4.154zm0 12.462h45.692v29.076H4.154V12.462zm24.992 4.125c-.988-.03-1.86.64-2.085 1.602l-4.154 16.616a2.078 2.078 0 104.032 1.006l4.154-16.616a2.078 2.078 0 00-1.947-2.608zm-12.571 2.081a2.077 2.077 0 00-1.688.95L9.967 27l4.92 7.383a2.076 2.076 0 003.613-.214 2.074 2.074 0 00-.157-2.09L14.956 27l3.387-5.079a2.078 2.078 0 00-1.768-3.253zm20.785 0a2.077 2.077 0 00-1.703 3.253L39.044 27l-3.387 5.079a2.076 2.076 0 103.456 2.304L44.033 27l-4.92-7.383a2.079 2.079 0 00-1.753-.949z"/></symbol><symbol viewBox="0 0 53 72" id="icon-lock" xmlns="http://www.w3.org/2000/svg"><path d="M26.182 0A19.594 19.594 0 006.545 19.636v8.904C2.482 33.153 0 39.188 0 45.818 0 60.278 11.723 72 26.182 72c14.459 0 26.182-11.723 26.182-26.182 0-6.63-2.483-12.665-6.546-17.278v-8.904A19.593 19.593 0 0026.182 0zm0 6.545c7.45 0 13.09 5.642 13.09 13.091v3.535a26.01 26.01 0 00-13.09-3.535 26.013 26.013 0 00-13.091 3.535v-3.535c0-7.449 5.641-13.09 13.09-13.09zm0 19.637c10.846 0 19.636 8.79 19.636 19.636s-8.79 19.637-19.636 19.637S6.545 56.664 6.545 45.818s8.791-19.636 19.637-19.636zm0 9.818c-3.6 0-6.546 2.945-6.546 6.545 0 2.406 1.33 4.493 3.273 5.632v10.732h6.546V48.177c1.944-1.14 3.272-3.226 3.272-5.632 0-3.6-2.945-6.545-6.545-6.545z"/></symbol><symbol viewBox="0 0 21 21" id="icon-star" xmlns="http://www.w3.org/2000/svg"><path d="M11.099.45l2.249 6.98 7.026.085c.605.008.855.815.37 1.193l-5.637 4.398 2.094 7.032c.18.605-.475 1.104-.969.737L10.5 16.614l-5.732 4.26c-.493.367-1.149-.133-.969-.737l2.094-7.031L.256 8.707C-.23 8.33.02 7.522.626 7.514l7.026-.085L9.902.45a.623.623 0 011.197 0z"/></symbol><symbol viewBox="0 0 31 31" id="plus" xmlns="http://www.w3.org/2000/svg"><path d="M15.5 0C6.94 0 0 6.94 0 15.5 0 24.06 6.94 31 15.5 31 24.06 31 31 24.06 31 15.5 31 6.94 24.06 0 15.5 0zm6.458 16.792h-5.166v5.166a1.291 1.291 0 11-2.584 0v-5.166H9.042a1.292 1.292 0 010-2.584h5.166V9.042a1.291 1.291 0 112.584 0v5.166h5.166a1.292 1.292 0 010 2.584z"/></symbol><symbol viewBox="0 0 24 24" id="search" xmlns="http://www.w3.org/2000/svg"><path d="M8.4 0C3.775 0 0 3.775 0 8.4s3.775 8.4 8.4 8.4a8.35 8.35 0 005.49-2.063l.51.511V16.8l7.2 7.2 2.4-2.4-7.2-7.2h-1.552l-.51-.51A8.354 8.354 0 0016.8 8.4c0-4.625-3.775-8.4-8.4-8.4zm0 2.4c3.328 0 6 2.672 6 6s-2.672 6-6 6-6-2.672-6-6 2.672-6 6-6z"/></symbol><symbol viewBox="0 0 10 6" id="select-arrow" xmlns="http://www.w3.org/2000/svg"><path d="M9.49.328C9.351.126 9.08 0 8.78 0H1.22C.92 0 .648.126.51.328a.488.488 0 00.024.605l3.78 4.771C4.462 5.89 4.718 6 5 6c.283 0 .54-.11.686-.295L9.466.933A.488.488 0 009.49.328z"/></symbol><symbol viewBox="0 0 10 6" id="select-arrow--white" xmlns="http://www.w3.org/2000/svg"><path d="M9.49.328C9.351.126 9.08 0 8.78 0H1.22C.92 0 .648.126.51.328a.488.488 0 00.024.605l3.78 4.771C4.462 5.89 4.718 6 5 6c.283 0 .54-.11.686-.295L9.466.933A.488.488 0 009.49.328z"/></symbol><symbol viewBox="0 0 24 23" id="side-bar--my-bot" xmlns="http://www.w3.org/2000/svg"><path d="M21.391 12.023V9.948a4.199 4.199 0 00-4.19-4.198h-4.68V4.108a2.087 2.087 0 10-1.043 0V5.75h-4.68a4.2 4.2 0 00-4.19 4.198v2.075H0v6.272h2.609V23H21.39v-4.705H24v-6.272h-2.609zm-8.348 6.272v3.66h-2.086v-3.66h2.086zm-6.26-6.01a1.827 1.827 0 113.652 0 1.827 1.827 0 11-3.652-.001zm1.043 6.01h2.087v3.66H7.826v-3.66zm8.348 3.66h-2.087v-3.66h2.087v3.66zm-.783-7.841a1.828 1.828 0 01-1.826-1.83c0-1.01.817-1.83 1.826-1.83 1.01 0 1.826.82 1.826 1.83 0 1.01-.817 1.83-1.826 1.83z"/></symbol><symbol viewBox="0 0 9 16" id="social-icons--fb" xmlns="http://www.w3.org/2000/svg"><path d="M8.319.618L6.42.615c-2.132 0-3.51 1.414-3.51 3.602v1.661H1.002a.299.299 0 00-.298.299v2.406c0 .165.134.298.298.298h1.909v6.072c0 .165.133.298.298.298H5.7a.298.298 0 00.298-.298V8.88H8.23a.298.298 0 00.298-.298V6.177a.296.296 0 00-.298-.299H5.997V4.47c0-.676.162-1.02 1.043-1.02h1.279a.299.299 0 00.298-.299V.917a.3.3 0 00-.298-.299z"/></symbol><symbol viewBox="0 0 19 11" id="social-icons--telegram" xmlns="http://www.w3.org/2000/svg"><path d="M15.183 6.267c.57.557 1.172 1.081 1.684 1.694.226.273.44.554.604.87.231.45.021.944-.382.97h-2.505c-.646.053-1.161-.207-1.594-.649-.347-.353-.668-.729-1.002-1.094-.137-.15-.28-.29-.45-.4-.343-.223-.64-.155-.835.202-.199.363-.244.764-.264 1.169-.026.59-.205.744-.797.771-1.266.06-2.468-.131-3.585-.77-.984-.563-1.747-1.358-2.411-2.258C2.352 5.019 1.362 3.093.47 1.114.271.668.418.428.91.42A66.808 66.808 0 013.362.419c.332.005.552.195.68.509a15.262 15.262 0 001.663 3.08c.18.255.365.51.627.69.29.199.512.133.649-.19.086-.206.124-.427.144-.646.065-.757.073-1.511-.04-2.265-.07-.47-.335-.774-.804-.863-.24-.046-.204-.135-.088-.271.201-.236.39-.383.768-.383h2.831c.446.088.545.288.606.737L10.4 3.96c-.004.174.087.69.4.804.25.082.415-.118.565-.277.678-.72 1.162-1.57 1.594-2.45.192-.387.357-.789.516-1.19.119-.299.305-.445.64-.439l2.725.003c.08 0 .163 0 .24.014.46.078.586.276.444.724-.223.704-.658 1.29-1.083 1.879-.455.628-.94 1.236-1.391 1.868-.414.578-.381.869.133 1.37z"/></symbol><symbol viewBox="0 0 16 14" id="social-icons--vk" xmlns="http://www.w3.org/2000/svg"><path d="M.876 7.032l3.403 1.27 1.318 4.236a.4.4 0 00.636.192l1.897-1.547a.567.567 0 01.69-.02l3.421 2.485c.236.171.57.042.629-.243L15.376 1.35a.402.402 0 00-.537-.456L.872 6.281a.401.401 0 00.004.75zm4.508.594l6.651-4.097c.12-.073.243.089.14.184L6.686 8.815c-.193.18-.317.42-.352.681l-.187 1.386c-.025.185-.285.203-.336.024l-.72-2.527a.67.67 0 01.293-.753z"/></symbol><symbol viewBox="0 0 16 16" id="social-icons--whatsapp" xmlns="http://www.w3.org/2000/svg"><path d="M8 .615C3.928.615.615 3.928.615 8c0 1.271.329 2.522.952 3.625l-.94 3.352a.324.324 0 00.309.408.347.347 0 00.078-.01l3.498-.866A7.393 7.393 0 008 15.385c4.072 0 7.385-3.313 7.385-7.385C15.385 3.928 12.072.615 8 .615zm3.715 9.99c-.158.438-.916.837-1.28.89a2.61 2.61 0 01-1.194-.073 11.089 11.089 0 01-1.081-.395C6.258 10.216 5.016 8.325 4.92 8.2c-.094-.125-.774-1.015-.774-1.936 0-.92.49-1.374.664-1.561a.7.7 0 01.505-.235c.127 0 .253.002.364.007.116.006.273-.044.427.321.158.375.537 1.297.584 1.39.047.094.079.204.016.329-.063.125-.095.203-.19.312-.095.11-.199.244-.284.328-.095.094-.194.195-.083.382.11.188.49.8 1.054 1.297.724.638 1.335.836 1.525.93.19.093.3.077.41-.048.11-.125.474-.546.6-.734.127-.187.253-.156.427-.093.174.062 1.106.515 1.296.608.19.094.316.141.363.22.048.077.048.452-.11.889z"/></symbol><symbol viewBox="0 0 19 19" id="star" xmlns="http://www.w3.org/2000/svg"><path d="M18.855 7.31a.998.998 0 00-.86-.687l-5.43-.493-2.146-5.024a1 1 0 00-1.838 0L6.434 6.13l-5.43.493a1 1 0 00-.567 1.75l4.104 3.598-1.21 5.33a1 1 0 001.486 1.08L9.5 15.582l4.681 2.8a1 1 0 001.488-1.08l-1.21-5.33 4.103-3.599a1 1 0 00.293-1.062z"/></symbol><symbol viewBox="0 0 12 14" id="style-icons--icons-8-bold" xmlns="http://www.w3.org/2000/svg"><path d="M11.298 7.486a3.28 3.28 0 00-1.315-1.1c.342-.24.62-.517.834-.83.34-.497.513-1.12.513-1.85 0-.665-.115-1.236-.34-1.699A2.876 2.876 0 0010.015.87 4.064 4.064 0 008.56.273 8.809 8.809 0 006.766.1H.546a.343.343 0 00-.345.342v13.165c0 .188.154.341.343.341H6.95c.62 0 1.232-.079 1.819-.233a5.058 5.058 0 001.61-.733c.48-.337.867-.777 1.151-1.308.284-.532.429-1.167.429-1.884 0-.89-.224-1.664-.662-2.304zM3.451 2.69h2.723c.259 0 .509.022.75.064.24.044.453.122.639.231.185.11.332.266.443.462.111.197.168.45.168.756 0 .553-.168.952-.501 1.198-.334.246-.76.37-1.278.37H3.451V2.69zm5.083 7.782a1.406 1.406 0 01-.472.526c-.198.129-.425.22-.685.277-.259.055-.53.083-.814.083H3.45V7.743h3.166c.631 0 1.136.145 1.52.433.382.29.574.773.574 1.449-.002.343-.06.626-.177.847z"/></symbol><symbol viewBox="0 0 12 10" id="style-icons--icons-8-get-quote" xmlns="http://www.w3.org/2000/svg"><path d="M8 .608c-.735 0-1.333.56-1.333 1.25v2.5c0 .69.598 1.25 1.333 1.25h2.007L7.014 9.375h1.663L12 5.189V1.858c0-.69-.598-1.25-1.333-1.25H8zM1.333.625C.598.625 0 1.185 0 1.875v2.5c0 .69.598 1.25 1.333 1.25H3.34L.362 9.375h1.661l3.31-4.169V1.875c0-.69-.598-1.25-1.333-1.25H1.333z"/></symbol><symbol viewBox="0 0 11 14" id="style-icons--icons-8-h" xmlns="http://www.w3.org/2000/svg"><path d="M0 0v14h2.2V8.077h6.6V14H11V0H8.8v5.923H2.2V0z"/></symbol><symbol viewBox="0 0 8 14" id="style-icons--icons-8-italic" xmlns="http://www.w3.org/2000/svg"><path d="M4.658.596a.95.95 0 00-.15.013H2.667A.686.686 0 002.08.91a.567.567 0 000 .613c.122.19.345.305.586.302h.96L2.362 12.783h-1.03a.683.683 0 00-.585.301.565.565 0 000 .614c.121.19.345.305.585.302h4a.684.684 0 00.586-.302.569.569 0 000-.614.682.682 0 00-.586-.301h-.96L5.638 1.826h1.03a.681.681 0 00.585-.302.563.563 0 000-.613.683.683 0 00-.586-.302H4.829a.89.89 0 00-.171-.013z"/></symbol><symbol viewBox="0 0 14 14" id="style-icons--icons-8-link" xmlns="http://www.w3.org/2000/svg"><path d="M11 .001c-.768 0-1.537.293-2.122.878L7.212 2.546a3.002 3.002 0 00-.72 3.075L7.69 4.424a1.65 1.65 0 01.464-.936l1.667-1.666A1.663 1.663 0 0111 1.334a1.667 1.667 0 011.178 2.844l-1.666 1.667a1.65 1.65 0 01-.936.464L8.378 7.507a2.99 2.99 0 003.076-.719l1.667-1.667A3.002 3.002 0 0011 0zM8.987 4.327a.661.661 0 00-.458.202l-4 4a.664.664 0 00.293 1.126c.234.06.482-.01.65-.184l4-4a.667.667 0 00-.485-1.144zM4.817 6.34a2.99 2.99 0 00-2.271.87L.879 8.879a3.003 3.003 0 000 4.243c.585.585 1.353.877 2.121.877s1.536-.293 2.121-.878l1.667-1.666c.83-.83 1.068-2.03.72-3.076l-1.2 1.197c-.05.343-.2.673-.464.936l-1.667 1.666a1.667 1.667 0 01-2.356-2.356l1.666-1.667a1.65 1.65 0 01.936-.465L5.62 6.493a3.039 3.039 0 00-.805-.152z"/></symbol><symbol viewBox="0 0 18 14" id="style-icons--icons-8-list" xmlns="http://www.w3.org/2000/svg"><path d="M5.143 6.125H18v1.75H5.143v-1.75zm0-5.25H18v1.75H5.143V.875zm0 10.5H18v1.75H5.143v-1.75zM1.714 5.687C1.004 5.688.43 6.276.43 7s.575 1.313 1.285 1.313S3 7.724 3 7s-.576-1.313-1.286-1.313zm0 5.25c-.71 0-1.285.588-1.285 1.313s.575 1.313 1.285 1.313S3 12.975 3 12.25s-.576-1.313-1.286-1.313zm0-10.5C1.004.438.43 1.026.43 1.75s.575 1.313 1.285 1.313S3 2.474 3 1.75 2.424.437 1.714.437z"/></symbol><symbol viewBox="0 0 19 14" id="style-icons--icons-8-source-code" xmlns="http://www.w3.org/2000/svg"><path d="M11.068.134l-4.56 13.222 1.425.51L12.492.644l-1.425-.51zM3.776 2.479L.475 6.502.071 7l.404.498 3.301 4.035 1.176-.997L2.054 7 4.94 3.476l-1.164-.997zm11.448 0l-1.164.997L16.946 7l-2.886 3.524 1.176.997 3.277-4.023.404-.498-.404-.498-3.29-4.023z"/></symbol><symbol viewBox="0 0 11 14" id="style-icons--icons-8-underline" xmlns="http://www.w3.org/2000/svg"><path d="M.344 0A.335.335 0 000 .326v6.837c0 2.872 2.468 5.21 5.5 5.21s5.5-2.338 5.5-5.21V.326A.335.335 0 0010.656 0H9.281a.335.335 0 00-.344.326v6.837c0 1.796-1.541 3.256-3.437 3.256s-3.438-1.46-3.438-3.256V.326A.334.334 0 001.72 0H.344zm.344 13.349a.335.335 0 00-.344.325c0 .181.154.326.344.326h9.624a.334.334 0 00.344-.326.334.334 0 00-.344-.325H.688z"/></symbol><symbol viewBox="0 0 23 24" id="toolbar-icons--icon-bag" xmlns="http://www.w3.org/2000/svg"><path d="M11.265 0a4.903 4.903 0 00-4.898 4.898v.98H2.495L.429 24h21.673L20.036 5.878h-2.893v2.938a1.47 1.47 0 01-1.47 1.47c-.109 0-.22-.008-.321-.03a1.478 1.478 0 01-1.148-1.44c0-.637.411-1.174.98-1.377v1.377a.49.49 0 10.98 0V4.898A4.904 4.904 0 0011.264 0zm0 .98a3.924 3.924 0 013.919 3.918v.98H8.327v2.938a1.47 1.47 0 01-1.47 1.47c-.109 0-.22-.008-.321-.03a1.476 1.476 0 01-1.148-1.44c0-.637.411-1.174.98-1.377v1.377a.49.49 0 00.979 0V4.898A3.923 3.923 0 0111.265.98z"/></symbol><symbol viewBox="0 0 24 24" id="toolbar-icons--icon-chart" xmlns="http://www.w3.org/2000/svg"><path d="M11.737.504a.421.421 0 00-.087.009C5.218.564 0 5.81 0 12.255 0 18.732 5.269 24 11.745 24c6.476 0 11.744-5.268 11.744-11.745 0-3.155-1.253-6.02-3.284-8.133V4.12l-.002-.001a11.763 11.763 0 00-1.77-1.509.5.5 0 00-.212-.14 11.647 11.647 0 00-6.38-1.958h-.003a.487.487 0 00-.101-.01zm-.503 1.04V7.69a4.603 4.603 0 00-4.085 4.566 4.6 4.6 0 004.596 4.596 4.572 4.572 0 002.865-1.008l4.335 4.335a10.67 10.67 0 01-7.2 2.8c-5.914 0-10.724-4.81-10.724-10.723 0-5.741 4.536-10.442 10.213-10.71zm1.021 0c.112.006.223.015.333.024l-.333.333v-.356zm1.601.2c.435.088.857.21 1.27.35l-2.87 2.87v-1.62l.035-.035 1.565-1.565zm2.306.758c.365.167.72.353 1.061.559l-4.67 4.67c-.098-.017-.198-.028-.298-.04V6.41l3.907-3.907zm1.927 1.137c.352.26.693.535 1.011.835l-4.42 4.25a4.608 4.608 0 00-1.028-.648l4.437-4.437zm-6.403 5.045c.04.005.081.005.122 0a3.577 3.577 0 013.511 3.571 3.58 3.58 0 01-3.574 3.575 3.58 3.58 0 01-3.575-3.575c0-1.95 1.572-3.54 3.516-3.571z"/></symbol><symbol viewBox="0 0 24 24" id="toolbar-icons--icon-map" xmlns="http://www.w3.org/2000/svg"><path d="M22.172.096l-6.213 2.485-3.955-1.318V1.26L8.421.068c-.298-.1-.624-.09-.917.027L.837 2.76A1.34 1.34 0 000 4v18.667c0 .942.952 1.588 1.828 1.238l6.213-2.485 7.534 2.51.004.002c.298.1.624.09.917-.027l6.667-2.666c.505-.203.837-.694.837-1.239V1.335c0-.943-.952-1.588-1.828-1.239zM8 18.595V2.77l.041-.018L16 5.407V21.23l-.041.017L8 18.595z"/></symbol><symbol viewBox="0 0 24 2" id="toolbar-icons--icon-minus" xmlns="http://www.w3.org/2000/svg"><path fill-rule="evenodd" d="M0 0h24v2H0z"/></symbol><symbol viewBox="0 0 21 24" id="toolbar-icons--icon-order" xmlns="http://www.w3.org/2000/svg"><path d="M1.655 0C.741 0 0 .74 0 1.655v18.207c0 .915.74 1.655 1.655 1.655h10.398c-.003.03-.01.055-.013.084a.83.83 0 00.374 1.571h.275c.089.015.18.015.27 0h6.35c.09.015.18.015.27 0h.283a.827.827 0 00.373-1.572c-.176-1.597-.907-2.59-1.576-3.393.67-.804 1.4-1.797 1.576-3.394a.827.827 0 00-.373-1.572h-.286a.824.824 0 00-.26 0h-2.764V1.655C16.552.741 15.81 0 14.897 0H1.655zm2.483 4.966a.828.828 0 11.001 1.655.828.828 0 01-.001-1.655zm3.31 0h4.966a.827.827 0 110 1.655H7.448a.828.828 0 010-1.655zm-3.31 3.31a.828.828 0 11.001 1.655.828.828 0 01-.001-1.655zm3.31 0h4.966a.827.827 0 110 1.655H7.448a.827.827 0 110-1.655zm-3.31 3.31a.828.828 0 110 1.657.828.828 0 010-1.657zm3.31 0h4.966a.828.828 0 010 1.655H7.448a.827.827 0 110-1.655zm-3.31 3.31a.828.828 0 110 1.655.828.828 0 010-1.654zm3.31 0h4.605c.08.632.243 1.17.456 1.636-.033.004-.061.02-.095.02H7.448a.828.828 0 010-1.655zm6.267 0h4.846c-.185 1.307-.812 1.915-1.55 2.771l-.466.54.466.54c.738.856 1.365 1.464 1.55 2.77h-.593c-.555-.708-1.296-1.3-1.83-1.3s-1.275.592-1.83 1.3h-.593c.185-1.306.812-1.914 1.55-2.77l.466-.54-.466-.54c-.738-.856-1.365-1.464-1.55-2.77z"/></symbol><symbol viewBox="0 0 24 24" id="toolbar-icons--icon-play" xmlns="http://www.w3.org/2000/svg"><path d="M23.957 12C23.957 5.398 18.602.043 12 .043S.043 5.398.043 12 5.398 23.957 12 23.957 23.957 18.602 23.957 12z"/><path d="M17.913 11.383l-8.429-5.18a.762.762 0 00-1.161.65v10.313c0 .275.15.53.385.665a.768.768 0 00.767-.014l8.429-5.137a.76.76 0 00.366-.646.728.728 0 00-.357-.65z"/></symbol><symbol viewBox="0 0 24 24" id="toolbar-icons--icon-plus" xmlns="http://www.w3.org/2000/svg"><g fill-rule="evenodd"><path d="M11 0h2v24h-2z"/><path d="M0 11h24v2H0z"/></g></symbol><symbol viewBox="0 0 24 24" id="toolbar-icons--icon-save" xmlns="http://www.w3.org/2000/svg"><path d="M2.182 0A2.18 2.18 0 000 2.182v19.636A2.18 2.18 0 002.182 24h19.636A2.18 2.18 0 0024 21.818V4.364L19.636 0h-2.181v6.545c0 .603-.49 1.091-1.091 1.091H6.545a1.09 1.09 0 01-1.09-1.09V0H2.182zM13.09 0v5.455h2.182V0H13.09zM6.545 13.09h10.91c1.205 0 2.181.977 2.181 2.183v6.545H4.364v-6.545a2.18 2.18 0 012.181-2.182z"/></symbol><symbol viewBox="0 0 24 24" id="toolbar-icons--icon-settings" xmlns="http://www.w3.org/2000/svg"><path d="M23.562 10.028l-3.084-.504a8.812 8.812 0 00-.736-1.776l1.8-2.566a.522.522 0 00-.058-.668l-2.03-2.028a.521.521 0 00-.673-.055l-2.527 1.816a8.753 8.753 0 00-1.79-.744L13.926.432A.521.521 0 0013.412 0h-2.87a.523.523 0 00-.515.438L9.53 3.492a8.769 8.769 0 00-1.794.737l-2.52-1.8a.52.52 0 00-.672.055L2.515 4.512a.52.52 0 00-.059.668L4.23 7.717a8.805 8.805 0 00-.75 1.805l-3.043.507a.523.523 0 00-.436.514v2.87c0 .253.182.47.43.514l3.043.54c.182.627.433 1.232.75 1.804l-1.795 2.512a.522.522 0 00.055.672l2.029 2.03a.52.52 0 00.668.059l2.54-1.78a8.84 8.84 0 001.798.743l.51 3.058a.52.52 0 00.513.435h2.87a.52.52 0 00.513-.43l.545-3.073a8.778 8.778 0 001.79-.75l2.56 1.796a.52.52 0 00.668-.058l2.029-2.03a.522.522 0 00.054-.674l-1.825-2.534a8.73 8.73 0 00.734-1.778l3.087-.542a.522.522 0 00.432-.514v-2.87a.523.523 0 00-.437-.515zM12 15.652a3.652 3.652 0 110-7.304 3.652 3.652 0 010 7.304z"/></symbol><symbol viewBox="0 0 24 24" id="toolbar-icons--icon-share" xmlns="http://www.w3.org/2000/svg"><path d="M20 0c-2.21 0-4 1.79-4 4 .002.281.033.561.094.836L7.012 9.377A3.997 3.997 0 004 8c-2.21 0-4 1.79-4 4a3.999 3.999 0 007.014 2.625l9.076 4.54A3.999 3.999 0 0020 24c2.21 0 4-1.79 4-4a3.999 3.999 0 00-7.014-2.625l-9.076-4.54c.06-.274.09-.554.09-.835a3.97 3.97 0 00-.094-.834l9.082-4.541A4 4 0 0020 8c2.21 0 4-1.79 4-4s-1.79-4-4-4z"/></symbol><symbol viewBox="0 0 24 24" id="toolbar-icons--icon-teamwork" xmlns="http://www.w3.org/2000/svg"><path d="M12 0c-1.551 0-2.813 1.308-2.813 2.86A2.816 2.816 0 0012 5.672a2.816 2.816 0 002.813-2.813C14.813 1.31 13.55 0 12 0zm0 5.672a4.928 4.928 0 00-4.922 4.922c0 .388.315.703.703.703h8.438a.703.703 0 00.703-.703A4.928 4.928 0 0012 5.672zm7.031 7.031a2.815 2.815 0 00-2.812 2.813c0 1.55 1.261 2.812 2.812 2.812s2.813-1.261 2.813-2.812a2.816 2.816 0 00-2.813-2.813zm0 5.625c-2.713 0-4.922 2.255-4.922 4.969 0 .389.315.703.704.703h8.484a.702.702 0 00.703-.703c0-2.714-2.255-4.969-4.969-4.969zM4.969 12.703a2.816 2.816 0 00-2.813 2.813 2.816 2.816 0 002.813 2.812 2.815 2.815 0 002.812-2.812 2.815 2.815 0 00-2.812-2.813zm0 5.625C2.255 18.328 0 20.583 0 23.297c0 .389.314.703.703.703h8.485a.703.703 0 00.703-.703c0-2.714-2.209-4.969-4.922-4.969zm10.158-1.332l-2.424-1.212v-2.378a.703.703 0 10-1.406 0v2.378l-2.424 1.212a.703.703 0 00.629 1.258L12 17.004l2.498 1.25a.703.703 0 00.629-1.258z"/></symbol><symbol viewBox="0 0 23 24" id="toolbar-icons--icon-transfer" xmlns="http://www.w3.org/2000/svg"><path d="M22.389 6.284l-4.5-6c-.282-.379-.917-.379-1.2 0l-4.5 6a.746.746 0 00-.07.785.748.748 0 00.67.415h2.25v8.727c0 1.82-1.265 3.652-2.63 5.359l-.955 1.195a.75.75 0 00.732 1.203c4.467-.89 7.353-4.771 7.353-9.883V7.483h2.25a.75.75 0 00.6-1.2zM10.168 2.413l.956-1.193A.749.749 0 0010.539 0a.673.673 0 00-.147.015C5.925.907 3.039 4.788 3.039 9.898V16.5H.789a.748.748 0 00-.6 1.2l4.5 6c.282.378.916.378 1.2 0l4.5-6a.746.746 0 00.07-.784.746.746 0 00-.67-.416h-2.25V7.773c0-1.821 1.264-3.652 2.63-5.36z"/></symbol><symbol viewBox="0 0 24 21" id="toolbar-icons--icon-users" xmlns="http://www.w3.org/2000/svg"><path d="M14.327 3.532a4.315 4.315 0 012.008 3.205c.448.21.945.33 1.472.33a3.482 3.482 0 10-3.48-3.534zm-2.28 7.13a3.482 3.482 0 10-.001-6.965 3.482 3.482 0 000 6.965zm1.476.237H10.57c-2.459 0-4.459 2-4.459 4.459v3.613l.01.057.248.078c2.346.733 4.385.977 6.062.977 3.277 0 5.176-.934 5.293-.994l.233-.117h.025v-3.614c0-2.458-2-4.459-4.458-4.459zm5.761-3.594h-2.932a4.288 4.288 0 01-1.324 2.989 5.298 5.298 0 013.784 5.07v1.113c2.895-.106 4.563-.927 4.673-.982l.232-.118h.025v-3.614c0-2.458-2-4.458-4.458-4.458zM5.936 7.068c.681 0 1.315-.2 1.852-.538a4.307 4.307 0 011.62-2.748c.004-.066.01-.13.01-.196a3.483 3.483 0 10-3.482 3.482zm3.127 3.226A4.294 4.294 0 017.74 7.32c-.109-.008-.216-.016-.327-.016H4.458A4.465 4.465 0 000 11.763v3.614l.01.055.248.079c1.882.587 3.562.858 5.02.944v-1.092a5.302 5.302 0 013.785-5.07z"/></symbol><symbol viewBox="0 0 23 24" id="toolbar-icons-active--icon-bag" xmlns="http://www.w3.org/2000/svg"><path d="M11.265 0a4.903 4.903 0 00-4.898 4.898v.98H2.495L.429 24h21.673L20.036 5.878h-2.893v2.938a1.47 1.47 0 01-1.47 1.47c-.109 0-.22-.008-.321-.03a1.478 1.478 0 01-1.148-1.44c0-.637.411-1.174.98-1.377v1.377a.49.49 0 10.98 0V4.898A4.904 4.904 0 0011.264 0zm0 .98a3.924 3.924 0 013.919 3.918v.98H8.327v2.938a1.47 1.47 0 01-1.47 1.47c-.109 0-.22-.008-.321-.03a1.476 1.476 0 01-1.148-1.44c0-.637.411-1.174.98-1.377v1.377a.49.49 0 00.979 0V4.898A3.923 3.923 0 0111.265.98z"/></symbol><symbol viewBox="0 0 24 24" id="toolbar-icons-active--icon-chart" xmlns="http://www.w3.org/2000/svg"><path d="M11.737.504a.421.421 0 00-.087.009C5.218.564 0 5.81 0 12.255 0 18.732 5.269 24 11.745 24c6.476 0 11.744-5.268 11.744-11.745 0-3.155-1.253-6.02-3.284-8.133V4.12l-.002-.001a11.763 11.763 0 00-1.77-1.509.5.5 0 00-.212-.14 11.647 11.647 0 00-6.38-1.958h-.003a.487.487 0 00-.101-.01zm-.503 1.04V7.69a4.603 4.603 0 00-4.085 4.566 4.6 4.6 0 004.596 4.596 4.572 4.572 0 002.865-1.008l4.335 4.335a10.67 10.67 0 01-7.2 2.8c-5.914 0-10.724-4.81-10.724-10.723 0-5.741 4.536-10.442 10.213-10.71zm1.021 0c.112.006.223.015.333.024l-.333.333v-.356zm1.601.2c.435.088.857.21 1.27.35l-2.87 2.87v-1.62l.035-.035 1.565-1.565zm2.306.758c.365.167.72.353 1.061.559l-4.67 4.67c-.098-.017-.198-.028-.298-.04V6.41l3.907-3.907zm1.927 1.137c.352.26.693.535 1.011.835l-4.42 4.25a4.608 4.608 0 00-1.028-.648l4.437-4.437zm-6.403 5.045c.04.005.081.005.122 0a3.577 3.577 0 013.511 3.571 3.58 3.58 0 01-3.574 3.575 3.58 3.58 0 01-3.575-3.575c0-1.95 1.572-3.54 3.516-3.571z"/></symbol><symbol viewBox="0 0 24 24" id="toolbar-icons-active--icon-map" xmlns="http://www.w3.org/2000/svg"><path d="M22.172.096l-6.213 2.485-3.955-1.318V1.26L8.421.068c-.298-.1-.624-.09-.917.027L.837 2.76A1.34 1.34 0 000 4v18.667c0 .942.952 1.588 1.828 1.238l6.213-2.485 7.534 2.51.004.002c.298.1.624.09.917-.027l6.667-2.666c.505-.203.837-.694.837-1.239V1.335c0-.943-.952-1.588-1.828-1.239zM8 18.595V2.77l.041-.018L16 5.407V21.23l-.041.017L8 18.595z"/></symbol><symbol viewBox="0 0 24 2" id="toolbar-icons-active--icon-minus" xmlns="http://www.w3.org/2000/svg"><path fill-rule="evenodd" d="M0 0h24v2H0z"/></symbol><symbol viewBox="0 0 21 24" id="toolbar-icons-active--icon-order" xmlns="http://www.w3.org/2000/svg"><path d="M1.655 0C.741 0 0 .74 0 1.655v18.207c0 .915.74 1.655 1.655 1.655h10.398c-.003.03-.01.055-.013.084a.83.83 0 00.374 1.571h.275c.089.015.18.015.27 0h6.35c.09.015.18.015.27 0h.283a.827.827 0 00.373-1.572c-.176-1.597-.907-2.59-1.576-3.393.67-.804 1.4-1.797 1.576-3.394a.827.827 0 00-.373-1.572h-.286a.824.824 0 00-.26 0h-2.764V1.655C16.552.741 15.81 0 14.897 0H1.655zm2.483 4.966a.828.828 0 11.001 1.655.828.828 0 01-.001-1.655zm3.31 0h4.966a.827.827 0 110 1.655H7.448a.828.828 0 010-1.655zm-3.31 3.31a.828.828 0 11.001 1.655.828.828 0 01-.001-1.655zm3.31 0h4.966a.827.827 0 110 1.655H7.448a.827.827 0 110-1.655zm-3.31 3.31a.828.828 0 110 1.657.828.828 0 010-1.657zm3.31 0h4.966a.828.828 0 010 1.655H7.448a.827.827 0 110-1.655zm-3.31 3.31a.828.828 0 110 1.655.828.828 0 010-1.654zm3.31 0h4.605c.08.632.243 1.17.456 1.636-.033.004-.061.02-.095.02H7.448a.828.828 0 010-1.655zm6.267 0h4.846c-.185 1.307-.812 1.915-1.55 2.771l-.466.54.466.54c.738.856 1.365 1.464 1.55 2.77h-.593c-.555-.708-1.296-1.3-1.83-1.3s-1.275.592-1.83 1.3h-.593c.185-1.306.812-1.914 1.55-2.77l.466-.54-.466-.54c-.738-.856-1.365-1.464-1.55-2.77z"/></symbol><symbol viewBox="0 0 24 24" id="toolbar-icons-active--icon-play" xmlns="http://www.w3.org/2000/svg"><path d="M23.957 12C23.957 5.398 18.602.043 12 .043S.043 5.398.043 12 5.398 23.957 12 23.957 23.957 18.602 23.957 12z"/><path d="M17.913 11.383l-8.429-5.18a.762.762 0 00-1.161.65v10.313c0 .275.15.53.385.665a.768.768 0 00.767-.014l8.429-5.137a.76.76 0 00.366-.646.728.728 0 00-.357-.65z"/></symbol><symbol viewBox="0 0 24 24" id="toolbar-icons-active--icon-plus" xmlns="http://www.w3.org/2000/svg"><g fill-rule="evenodd"><path d="M11 0h2v24h-2z"/><path d="M0 11h24v2H0z"/></g></symbol><symbol viewBox="0 0 24 24" id="toolbar-icons-active--icon-save" xmlns="http://www.w3.org/2000/svg"><path d="M2.182 0A2.18 2.18 0 000 2.182v19.636A2.18 2.18 0 002.182 24h19.636A2.18 2.18 0 0024 21.818V4.364L19.636 0h-2.181v6.545c0 .603-.49 1.091-1.091 1.091H6.545a1.09 1.09 0 01-1.09-1.09V0H2.182zM13.09 0v5.455h2.182V0H13.09zM6.545 13.09h10.91c1.205 0 2.181.977 2.181 2.183v6.545H4.364v-6.545a2.18 2.18 0 012.181-2.182z"/></symbol><symbol viewBox="0 0 24 24" id="toolbar-icons-active--icon-settings" xmlns="http://www.w3.org/2000/svg"><path d="M23.562 10.028l-3.084-.504a8.812 8.812 0 00-.736-1.776l1.8-2.566a.522.522 0 00-.058-.668l-2.03-2.028a.521.521 0 00-.673-.055l-2.527 1.816a8.753 8.753 0 00-1.79-.744L13.926.432A.521.521 0 0013.412 0h-2.87a.523.523 0 00-.515.438L9.53 3.492a8.769 8.769 0 00-1.794.737l-2.52-1.8a.52.52 0 00-.672.055L2.515 4.512a.52.52 0 00-.059.668L4.23 7.717a8.805 8.805 0 00-.75 1.805l-3.043.507a.523.523 0 00-.436.514v2.87c0 .253.182.47.43.514l3.043.54c.182.627.433 1.232.75 1.804l-1.795 2.512a.522.522 0 00.055.672l2.029 2.03a.52.52 0 00.668.059l2.54-1.78a8.84 8.84 0 001.798.743l.51 3.058a.52.52 0 00.513.435h2.87a.52.52 0 00.513-.43l.545-3.073a8.778 8.778 0 001.79-.75l2.56 1.796a.52.52 0 00.668-.058l2.029-2.03a.522.522 0 00.054-.674l-1.825-2.534a8.73 8.73 0 00.734-1.778l3.087-.542a.522.522 0 00.432-.514v-2.87a.523.523 0 00-.437-.515zM12 15.652a3.652 3.652 0 110-7.304 3.652 3.652 0 010 7.304z"/></symbol><symbol viewBox="0 0 24 24" id="toolbar-icons-active--icon-share" xmlns="http://www.w3.org/2000/svg"><path d="M20 0c-2.21 0-4 1.79-4 4 .002.281.033.561.094.836L7.012 9.377A3.997 3.997 0 004 8c-2.21 0-4 1.79-4 4a3.999 3.999 0 007.014 2.625l9.076 4.54A3.999 3.999 0 0020 24c2.21 0 4-1.79 4-4a3.999 3.999 0 00-7.014-2.625l-9.076-4.54c.06-.274.09-.554.09-.835a3.97 3.97 0 00-.094-.834l9.082-4.541A4 4 0 0020 8c2.21 0 4-1.79 4-4s-1.79-4-4-4z"/></symbol><symbol viewBox="0 0 24 24" id="toolbar-icons-active--icon-teamwork" xmlns="http://www.w3.org/2000/svg"><path d="M12 0c-1.551 0-2.813 1.308-2.813 2.86A2.816 2.816 0 0012 5.672a2.816 2.816 0 002.813-2.813C14.813 1.31 13.55 0 12 0zm0 5.672a4.928 4.928 0 00-4.922 4.922c0 .388.315.703.703.703h8.438a.703.703 0 00.703-.703A4.928 4.928 0 0012 5.672zm7.031 7.031a2.815 2.815 0 00-2.812 2.813c0 1.55 1.261 2.812 2.812 2.812s2.813-1.261 2.813-2.812a2.816 2.816 0 00-2.813-2.813zm0 5.625c-2.713 0-4.922 2.255-4.922 4.969 0 .389.315.703.704.703h8.484a.702.702 0 00.703-.703c0-2.714-2.255-4.969-4.969-4.969zM4.969 12.703a2.816 2.816 0 00-2.813 2.813 2.816 2.816 0 002.813 2.812 2.815 2.815 0 002.812-2.812 2.815 2.815 0 00-2.812-2.813zm0 5.625C2.255 18.328 0 20.583 0 23.297c0 .389.314.703.703.703h8.485a.703.703 0 00.703-.703c0-2.714-2.209-4.969-4.922-4.969zm10.158-1.332l-2.424-1.212v-2.378a.703.703 0 10-1.406 0v2.378l-2.424 1.212a.703.703 0 00.629 1.258L12 17.004l2.498 1.25a.703.703 0 00.629-1.258z"/></symbol><symbol viewBox="0 0 23 24" id="toolbar-icons-active--icon-transfer" xmlns="http://www.w3.org/2000/svg"><path d="M22.389 6.284l-4.5-6c-.282-.379-.917-.379-1.2 0l-4.5 6a.746.746 0 00-.07.785.748.748 0 00.67.415h2.25v8.727c0 1.82-1.265 3.652-2.63 5.359l-.955 1.195a.75.75 0 00.732 1.203c4.467-.89 7.353-4.771 7.353-9.883V7.483h2.25a.75.75 0 00.6-1.2zM10.168 2.413l.956-1.193A.749.749 0 0010.539 0a.673.673 0 00-.147.015C5.925.907 3.039 4.788 3.039 9.898V16.5H.789a.748.748 0 00-.6 1.2l4.5 6c.282.378.916.378 1.2 0l4.5-6a.746.746 0 00.07-.784.746.746 0 00-.67-.416h-2.25V7.773c0-1.821 1.264-3.652 2.63-5.36z"/></symbol><symbol viewBox="0 0 24 21" id="toolbar-icons-active--icon-users" xmlns="http://www.w3.org/2000/svg"><path d="M14.327 3.532a4.315 4.315 0 012.008 3.205c.448.21.945.33 1.472.33a3.482 3.482 0 10-3.48-3.534zm-2.28 7.13a3.482 3.482 0 10-.001-6.965 3.482 3.482 0 000 6.965zm1.476.237H10.57c-2.459 0-4.459 2-4.459 4.459v3.613l.01.057.248.078c2.346.733 4.385.977 6.062.977 3.277 0 5.176-.934 5.293-.994l.233-.117h.025v-3.614c0-2.458-2-4.459-4.458-4.459zm5.761-3.594h-2.932a4.288 4.288 0 01-1.324 2.989 5.298 5.298 0 013.784 5.07v1.113c2.895-.106 4.563-.927 4.673-.982l.232-.118h.025v-3.614c0-2.458-2-4.458-4.458-4.458zM5.936 7.068c.681 0 1.315-.2 1.852-.538a4.307 4.307 0 011.62-2.748c.004-.066.01-.13.01-.196a3.483 3.483 0 10-3.482 3.482zm3.127 3.226A4.294 4.294 0 017.74 7.32c-.109-.008-.216-.016-.327-.016H4.458A4.465 4.465 0 000 11.763v3.614l.01.055.248.079c1.882.587 3.562.858 5.02.944v-1.092a5.302 5.302 0 013.785-5.07z"/></symbol><symbol viewBox="0 0 23 24" id="toolbar-icons-hover--icon-bag" xmlns="http://www.w3.org/2000/svg"><path d="M11.265 0a4.903 4.903 0 00-4.898 4.898v.98H2.495L.429 24h21.673L20.036 5.878h-2.893v2.938a1.47 1.47 0 01-1.47 1.47c-.109 0-.22-.008-.321-.03a1.478 1.478 0 01-1.148-1.44c0-.637.411-1.174.98-1.377v1.377a.49.49 0 10.98 0V4.898A4.904 4.904 0 0011.264 0zm0 .98a3.924 3.924 0 013.919 3.918v.98H8.327v2.938a1.47 1.47 0 01-1.47 1.47c-.109 0-.22-.008-.321-.03a1.476 1.476 0 01-1.148-1.44c0-.637.411-1.174.98-1.377v1.377a.49.49 0 00.979 0V4.898A3.923 3.923 0 0111.265.98z"/></symbol><symbol viewBox="0 0 24 24" id="toolbar-icons-hover--icon-chart" xmlns="http://www.w3.org/2000/svg"><path d="M11.737.504a.421.421 0 00-.087.009C5.218.564 0 5.81 0 12.255 0 18.732 5.269 24 11.745 24c6.476 0 11.744-5.268 11.744-11.745 0-3.155-1.253-6.02-3.284-8.133V4.12l-.002-.001a11.763 11.763 0 00-1.77-1.509.5.5 0 00-.212-.14 11.647 11.647 0 00-6.38-1.958h-.003a.487.487 0 00-.101-.01zm-.503 1.04V7.69a4.603 4.603 0 00-4.085 4.566 4.6 4.6 0 004.596 4.596 4.572 4.572 0 002.865-1.008l4.335 4.335a10.67 10.67 0 01-7.2 2.8c-5.914 0-10.724-4.81-10.724-10.723 0-5.741 4.536-10.442 10.213-10.71zm1.021 0c.112.006.223.015.333.024l-.333.333v-.356zm1.601.2c.435.088.857.21 1.27.35l-2.87 2.87v-1.62l.035-.035 1.565-1.565zm2.306.758c.365.167.72.353 1.061.559l-4.67 4.67c-.098-.017-.198-.028-.298-.04V6.41l3.907-3.907zm1.927 1.137c.352.26.693.535 1.011.835l-4.42 4.25a4.608 4.608 0 00-1.028-.648l4.437-4.437zm-6.403 5.045c.04.005.081.005.122 0a3.577 3.577 0 013.511 3.571 3.58 3.58 0 01-3.574 3.575 3.58 3.58 0 01-3.575-3.575c0-1.95 1.572-3.54 3.516-3.571z"/></symbol><symbol viewBox="0 0 24 24" id="toolbar-icons-hover--icon-map" xmlns="http://www.w3.org/2000/svg"><path d="M22.172.096l-6.213 2.485-3.955-1.318V1.26L8.421.068c-.298-.1-.624-.09-.917.027L.837 2.76A1.34 1.34 0 000 4v18.667c0 .942.952 1.588 1.828 1.238l6.213-2.485 7.534 2.51.004.002c.298.1.624.09.917-.027l6.667-2.666c.505-.203.837-.694.837-1.239V1.335c0-.943-.952-1.588-1.828-1.239zM8 18.595V2.77l.041-.018L16 5.407V21.23l-.041.017L8 18.595z"/></symbol><symbol viewBox="0 0 24 2" id="toolbar-icons-hover--icon-minus" xmlns="http://www.w3.org/2000/svg"><path fill-rule="evenodd" d="M0 0h24v2H0z"/></symbol><symbol viewBox="0 0 21 24" id="toolbar-icons-hover--icon-order" xmlns="http://www.w3.org/2000/svg"><path d="M1.655 0C.741 0 0 .74 0 1.655v18.207c0 .915.74 1.655 1.655 1.655h10.398c-.003.03-.01.055-.013.084a.83.83 0 00.374 1.571h.275c.089.015.18.015.27 0h6.35c.09.015.18.015.27 0h.283a.827.827 0 00.373-1.572c-.176-1.597-.907-2.59-1.576-3.393.67-.804 1.4-1.797 1.576-3.394a.827.827 0 00-.373-1.572h-.286a.824.824 0 00-.26 0h-2.764V1.655C16.552.741 15.81 0 14.897 0H1.655zm2.483 4.966a.828.828 0 11.001 1.655.828.828 0 01-.001-1.655zm3.31 0h4.966a.827.827 0 110 1.655H7.448a.828.828 0 010-1.655zm-3.31 3.31a.828.828 0 11.001 1.655.828.828 0 01-.001-1.655zm3.31 0h4.966a.827.827 0 110 1.655H7.448a.827.827 0 110-1.655zm-3.31 3.31a.828.828 0 110 1.657.828.828 0 010-1.657zm3.31 0h4.966a.828.828 0 010 1.655H7.448a.827.827 0 110-1.655zm-3.31 3.31a.828.828 0 110 1.655.828.828 0 010-1.654zm3.31 0h4.605c.08.632.243 1.17.456 1.636-.033.004-.061.02-.095.02H7.448a.828.828 0 010-1.655zm6.267 0h4.846c-.185 1.307-.812 1.915-1.55 2.771l-.466.54.466.54c.738.856 1.365 1.464 1.55 2.77h-.593c-.555-.708-1.296-1.3-1.83-1.3s-1.275.592-1.83 1.3h-.593c.185-1.306.812-1.914 1.55-2.77l.466-.54-.466-.54c-.738-.856-1.365-1.464-1.55-2.77z"/></symbol><symbol viewBox="0 0 24 24" id="toolbar-icons-hover--icon-play" xmlns="http://www.w3.org/2000/svg"><path d="M23.957 12C23.957 5.398 18.602.043 12 .043S.043 5.398.043 12 5.398 23.957 12 23.957 23.957 18.602 23.957 12z"/><path d="M17.913 11.383l-8.429-5.18a.762.762 0 00-1.161.65v10.313c0 .275.15.53.385.665a.768.768 0 00.767-.014l8.429-5.137a.76.76 0 00.366-.646.728.728 0 00-.357-.65z"/></symbol><symbol viewBox="0 0 24 24" id="toolbar-icons-hover--icon-plus" xmlns="http://www.w3.org/2000/svg"><g fill-rule="evenodd"><path d="M11 0h2v24h-2z"/><path d="M0 11h24v2H0z"/></g></symbol><symbol viewBox="0 0 24 24" id="toolbar-icons-hover--icon-save" xmlns="http://www.w3.org/2000/svg"><path d="M2.182 0A2.18 2.18 0 000 2.182v19.636A2.18 2.18 0 002.182 24h19.636A2.18 2.18 0 0024 21.818V4.364L19.636 0h-2.181v6.545c0 .603-.49 1.091-1.091 1.091H6.545a1.09 1.09 0 01-1.09-1.09V0H2.182zM13.09 0v5.455h2.182V0H13.09zM6.545 13.09h10.91c1.205 0 2.181.977 2.181 2.183v6.545H4.364v-6.545a2.18 2.18 0 012.181-2.182z"/></symbol><symbol viewBox="0 0 24 24" id="toolbar-icons-hover--icon-settings" xmlns="http://www.w3.org/2000/svg"><path d="M23.562 10.028l-3.084-.504a8.812 8.812 0 00-.736-1.776l1.8-2.566a.522.522 0 00-.058-.668l-2.03-2.028a.521.521 0 00-.673-.055l-2.527 1.816a8.753 8.753 0 00-1.79-.744L13.926.432A.521.521 0 0013.412 0h-2.87a.523.523 0 00-.515.438L9.53 3.492a8.769 8.769 0 00-1.794.737l-2.52-1.8a.52.52 0 00-.672.055L2.515 4.512a.52.52 0 00-.059.668L4.23 7.717a8.805 8.805 0 00-.75 1.805l-3.043.507a.523.523 0 00-.436.514v2.87c0 .253.182.47.43.514l3.043.54c.182.627.433 1.232.75 1.804l-1.795 2.512a.522.522 0 00.055.672l2.029 2.03a.52.52 0 00.668.059l2.54-1.78a8.84 8.84 0 001.798.743l.51 3.058a.52.52 0 00.513.435h2.87a.52.52 0 00.513-.43l.545-3.073a8.778 8.778 0 001.79-.75l2.56 1.796a.52.52 0 00.668-.058l2.029-2.03a.522.522 0 00.054-.674l-1.825-2.534a8.73 8.73 0 00.734-1.778l3.087-.542a.522.522 0 00.432-.514v-2.87a.523.523 0 00-.437-.515zM12 15.652a3.652 3.652 0 110-7.304 3.652 3.652 0 010 7.304z"/></symbol><symbol viewBox="0 0 24 24" id="toolbar-icons-hover--icon-share" xmlns="http://www.w3.org/2000/svg"><path d="M20 0c-2.21 0-4 1.79-4 4 .002.281.033.561.094.836L7.012 9.377A3.997 3.997 0 004 8c-2.21 0-4 1.79-4 4a3.999 3.999 0 007.014 2.625l9.076 4.54A3.999 3.999 0 0020 24c2.21 0 4-1.79 4-4a3.999 3.999 0 00-7.014-2.625l-9.076-4.54c.06-.274.09-.554.09-.835a3.97 3.97 0 00-.094-.834l9.082-4.541A4 4 0 0020 8c2.21 0 4-1.79 4-4s-1.79-4-4-4z"/></symbol><symbol viewBox="0 0 24 24" id="toolbar-icons-hover--icon-teamwork" xmlns="http://www.w3.org/2000/svg"><path d="M12 0c-1.551 0-2.813 1.308-2.813 2.86A2.816 2.816 0 0012 5.672a2.816 2.816 0 002.813-2.813C14.813 1.31 13.55 0 12 0zm0 5.672a4.928 4.928 0 00-4.922 4.922c0 .388.315.703.703.703h8.438a.703.703 0 00.703-.703A4.928 4.928 0 0012 5.672zm7.031 7.031a2.815 2.815 0 00-2.812 2.813c0 1.55 1.261 2.812 2.812 2.812s2.813-1.261 2.813-2.812a2.816 2.816 0 00-2.813-2.813zm0 5.625c-2.713 0-4.922 2.255-4.922 4.969 0 .389.315.703.704.703h8.484a.702.702 0 00.703-.703c0-2.714-2.255-4.969-4.969-4.969zM4.969 12.703a2.816 2.816 0 00-2.813 2.813 2.816 2.816 0 002.813 2.812 2.815 2.815 0 002.812-2.812 2.815 2.815 0 00-2.812-2.813zm0 5.625C2.255 18.328 0 20.583 0 23.297c0 .389.314.703.703.703h8.485a.703.703 0 00.703-.703c0-2.714-2.209-4.969-4.922-4.969zm10.158-1.332l-2.424-1.212v-2.378a.703.703 0 10-1.406 0v2.378l-2.424 1.212a.703.703 0 00.629 1.258L12 17.004l2.498 1.25a.703.703 0 00.629-1.258z"/></symbol><symbol viewBox="0 0 23 24" id="toolbar-icons-hover--icon-transfer" xmlns="http://www.w3.org/2000/svg"><path d="M22.389 6.284l-4.5-6c-.282-.379-.917-.379-1.2 0l-4.5 6a.746.746 0 00-.07.785.748.748 0 00.67.415h2.25v8.727c0 1.82-1.265 3.652-2.63 5.359l-.955 1.195a.75.75 0 00.732 1.203c4.467-.89 7.353-4.771 7.353-9.883V7.483h2.25a.75.75 0 00.6-1.2zM10.168 2.413l.956-1.193A.749.749 0 0010.539 0a.673.673 0 00-.147.015C5.925.907 3.039 4.788 3.039 9.898V16.5H.789a.748.748 0 00-.6 1.2l4.5 6c.282.378.916.378 1.2 0l4.5-6a.746.746 0 00.07-.784.746.746 0 00-.67-.416h-2.25V7.773c0-1.821 1.264-3.652 2.63-5.36z"/></symbol><symbol viewBox="0 0 24 21" id="toolbar-icons-hover--icon-users" xmlns="http://www.w3.org/2000/svg"><path d="M14.327 3.532a4.315 4.315 0 012.008 3.205c.448.21.945.33 1.472.33a3.482 3.482 0 10-3.48-3.534zm-2.28 7.13a3.482 3.482 0 10-.001-6.965 3.482 3.482 0 000 6.965zm1.476.237H10.57c-2.459 0-4.459 2-4.459 4.459v3.613l.01.057.248.078c2.346.733 4.385.977 6.062.977 3.277 0 5.176-.934 5.293-.994l.233-.117h.025v-3.614c0-2.458-2-4.459-4.458-4.459zm5.761-3.594h-2.932a4.288 4.288 0 01-1.324 2.989 5.298 5.298 0 013.784 5.07v1.113c2.895-.106 4.563-.927 4.673-.982l.232-.118h.025v-3.614c0-2.458-2-4.458-4.458-4.458zM5.936 7.068c.681 0 1.315-.2 1.852-.538a4.307 4.307 0 011.62-2.748c.004-.066.01-.13.01-.196a3.483 3.483 0 10-3.482 3.482zm3.127 3.226A4.294 4.294 0 017.74 7.32c-.109-.008-.216-.016-.327-.016H4.458A4.465 4.465 0 000 11.763v3.614l.01.055.248.079c1.882.587 3.562.858 5.02.944v-1.092a5.302 5.302 0 013.785-5.07z"/></symbol></svg>