<svg xmlns="http://www.w3.org/2000/svg" width="21" height="24"><path fill="#006ae4" d="M1.655 0C.741 0 0 .74 0 1.655v18.207c0 .915.74 1.655 1.655 1.655h10.398c-.003.03-.01.055-.013.084a.83.83 0 00.374 1.571h.275c.089.015.18.015.27 0h6.35c.09.015.18.015.27 0h.283a.827.827 0 00.373-1.572c-.176-1.597-.907-2.59-1.576-3.393.67-.804 1.4-1.797 1.576-3.394a.827.827 0 00-.373-1.572h-.286a.824.824 0 00-.26 0h-2.764V1.655C16.552.741 15.81 0 14.897 0H1.655zm2.483 4.966a.828.828 0 11.001 1.655.828.828 0 01-.001-1.655zm3.31 0h4.966a.827.827 0 110 1.655H7.448a.828.828 0 010-1.655zm-3.31 3.31a.828.828 0 11.001 1.655.828.828 0 01-.001-1.655zm3.31 0h4.966a.827.827 0 110 1.655H7.448a.827.827 0 110-1.655zm-3.31 3.31a.828.828 0 110 1.657.828.828 0 010-1.657zm3.31 0h4.966a.828.828 0 010 1.655H7.448a.827.827 0 110-1.655zm-3.31 3.31a.828.828 0 110 1.655.828.828 0 010-1.654zm3.31 0h4.605c.08.632.243 1.17.456 1.636-.033.004-.061.02-.095.02H7.448a.828.828 0 010-1.655zm6.267 0h4.846c-.185 1.307-.812 1.915-1.55 2.771l-.466.54.466.54c.738.856 1.365 1.464 1.55 2.77h-.593c-.555-.708-1.296-1.3-1.83-1.3s-1.275.592-1.83 1.3h-.593c.185-1.306.812-1.914 1.55-2.77l.466-.54-.466-.54c-.738-.856-1.365-1.464-1.55-2.77z"/></svg>