<svg xmlns="http://www.w3.org/2000/svg" width="23" height="24"><path d="M22.389 6.284l-4.5-6c-.282-.379-.917-.379-1.2 0l-4.5 6a.746.746 0 00-.07.785.748.748 0 00.67.415h2.25v8.727c0 1.82-1.265 3.652-2.63 5.359l-.955 1.195a.75.75 0 00.732 1.203c4.467-.89 7.353-4.771 7.353-9.883V7.483h2.25a.75.75 0 00.6-1.2zM10.168 2.413l.956-1.193A.749.749 0 0010.539 0a.673.673 0 00-.147.015C5.925.907 3.039 4.788 3.039 9.898V16.5H.789a.748.748 0 00-.6 1.2l4.5 6c.282.378.916.378 1.2 0l4.5-6a.746.746 0 00.07-.784.746.746 0 00-.67-.416h-2.25V7.773c0-1.821 1.264-3.652 2.63-5.36z" fill="#006ae4"/></svg>