<svg xmlns="http://www.w3.org/2000/svg" width="24" height="24"><path fill="#006ae4" d="M23.562 10.028l-3.084-.504a8.812 8.812 0 00-.736-1.776l1.8-2.566a.522.522 0 00-.058-.668l-2.03-2.028a.521.521 0 00-.673-.055l-2.527 1.816a8.753 8.753 0 00-1.79-.744L13.926.432A.521.521 0 0013.412 0h-2.87a.523.523 0 00-.515.438L9.53 3.492a8.769 8.769 0 00-1.794.737l-2.52-1.8a.52.52 0 00-.672.055L2.515 4.512a.52.52 0 00-.059.668L4.23 7.717a8.805 8.805 0 00-.75 1.805l-3.043.507a.523.523 0 00-.436.514v2.87c0 .253.182.47.43.514l3.043.54c.182.627.433 1.232.75 1.804l-1.795 2.512a.522.522 0 00.055.672l2.029 2.03a.52.52 0 00.668.059l2.54-1.78a8.84 8.84 0 001.798.743l.51 3.058a.52.52 0 00.513.435h2.87a.52.52 0 00.513-.43l.545-3.073a8.778 8.778 0 001.79-.75l2.56 1.796a.52.52 0 00.668-.058l2.029-2.03a.522.522 0 00.054-.674l-1.825-2.534a8.73 8.73 0 00.734-1.778l3.087-.542a.522.522 0 00.432-.514v-2.87a.523.523 0 00-.437-.515zM12 15.652a3.652 3.652 0 110-7.304 3.652 3.652 0 010 7.304z"/></svg>