<svg xmlns="http://www.w3.org/2000/svg" width="23" height="24"><path fill="#006ae4" d="M11.265 0a4.903 4.903 0 00-4.898 4.898v.98H2.495L.429 24h21.673L20.036 5.878h-2.893v2.938a1.47 1.47 0 01-1.47 1.47c-.109 0-.22-.008-.321-.03a1.478 1.478 0 01-1.148-1.44c0-.637.411-1.174.98-1.377v1.377a.49.49 0 10.98 0V4.898A4.904 4.904 0 0011.264 0zm0 .98a3.924 3.924 0 013.919 3.918v.98H8.327v2.938a1.47 1.47 0 01-1.47 1.47c-.109 0-.22-.008-.321-.03a1.476 1.476 0 01-1.148-1.44c0-.637.411-1.174.98-1.377v1.377a.49.49 0 00.979 0V4.898A3.923 3.923 0 0111.265.98z"/></svg>