<svg xmlns="http://www.w3.org/2000/svg" width="24" height="24"><path d="M12 0c-1.551 0-2.813 1.308-2.813 2.86A2.816 2.816 0 0012 5.672a2.816 2.816 0 002.813-2.813C14.813 1.31 13.55 0 12 0zm0 5.672a4.928 4.928 0 00-4.922 4.922c0 .388.315.703.703.703h8.438a.703.703 0 00.703-.703A4.928 4.928 0 0012 5.672zm7.031 7.031a2.815 2.815 0 00-2.812 2.813c0 1.55 1.261 2.812 2.812 2.812s2.813-1.261 2.813-2.812a2.816 2.816 0 00-2.813-2.813zm0 5.625c-2.713 0-4.922 2.255-4.922 4.969 0 .389.315.703.704.703h8.484a.702.702 0 00.703-.703c0-2.714-2.255-4.969-4.969-4.969zM4.969 12.703a2.816 2.816 0 00-2.813 2.813 2.816 2.816 0 002.813 2.812 2.815 2.815 0 002.812-2.812 2.815 2.815 0 00-2.812-2.813zm0 5.625C2.255 18.328 0 20.583 0 23.297c0 .389.314.703.703.703h8.485a.703.703 0 00.703-.703c0-2.714-2.209-4.969-4.922-4.969zm10.158-1.332l-2.424-1.212v-2.378a.703.703 0 10-1.406 0v2.378l-2.424 1.212a.703.703 0 00.629 1.258L12 17.004l2.498 1.25a.703.703 0 00.629-1.258z" fill="#006ae4"/></svg>