<svg xmlns="http://www.w3.org/2000/svg" width="24" height="23"><path fill="#FFF" d="M21.391 12.023V9.948a4.199 4.199 0 00-4.19-4.198h-4.68V4.108a2.087 2.087 0 10-1.043 0V5.75h-4.68a4.2 4.2 0 00-4.19 4.198v2.075H0v6.272h2.609V23H21.39v-4.705H24v-6.272h-2.609zm-8.348 6.272v3.66h-2.086v-3.66h2.086zm-6.26-6.01a1.827 1.827 0 113.652 0 1.827 1.827 0 11-3.652-.001zm1.043 6.01h2.087v3.66H7.826v-3.66zm8.348 3.66h-2.087v-3.66h2.087v3.66zm-.783-7.841a1.828 1.828 0 01-1.826-1.83c0-1.01.817-1.83 1.826-1.83 1.01 0 1.826.82 1.826 1.83 0 1.01-.817 1.83-1.826 1.83z"/></svg>