<svg xmlns="http://www.w3.org/2000/svg" width="24" height="21"><path fill="#A0A8BB" d="M14.327 3.532a4.315 4.315 0 012.008 3.205c.448.21.945.33 1.472.33a3.482 3.482 0 10-3.48-3.534zm-2.28 7.13a3.482 3.482 0 10-.001-6.965 3.482 3.482 0 000 6.965zm1.476.237H10.57c-2.459 0-4.459 2-4.459 4.459v3.613l.01.057.248.078c2.346.733 4.385.977 6.062.977 3.277 0 5.176-.934 5.293-.994l.233-.117h.025v-3.614c0-2.458-2-4.459-4.458-4.459zm5.761-3.594h-2.932a4.288 4.288 0 01-1.324 2.989 5.298 5.298 0 013.784 5.07v1.113c2.895-.106 4.563-.927 4.673-.982l.232-.118h.025v-3.614c0-2.458-2-4.458-4.458-4.458zM5.936 7.068c.681 0 1.315-.2 1.852-.538a4.307 4.307 0 011.62-2.748c.004-.066.01-.13.01-.196a3.483 3.483 0 10-3.482 3.482zm3.127 3.226A4.294 4.294 0 017.74 7.32c-.109-.008-.216-.016-.327-.016H4.458A4.465 4.465 0 000 11.763v3.614l.01.055.248.079c1.882.587 3.562.858 5.02.944v-1.092a5.302 5.302 0 013.785-5.07z"/></svg>