<svg xmlns="http://www.w3.org/2000/svg" width="24" height="24"><path fill="#A0A8BB" d="M11.737.504a.421.421 0 00-.087.009C5.218.564 0 5.81 0 12.255 0 18.732 5.269 24 11.745 24c6.476 0 11.744-5.268 11.744-11.745 0-3.155-1.253-6.02-3.284-8.133V4.12l-.002-.001a11.763 11.763 0 00-1.77-1.509.5.5 0 00-.212-.14 11.647 11.647 0 00-6.38-1.958h-.003a.487.487 0 00-.101-.01zm-.503 1.04V7.69a4.603 4.603 0 00-4.085 4.566 4.6 4.6 0 004.596 4.596 4.572 4.572 0 002.865-1.008l4.335 4.335a10.67 10.67 0 01-7.2 2.8c-5.914 0-10.724-4.81-10.724-10.723 0-5.741 4.536-10.442 10.213-10.71zm1.021 0c.112.006.223.015.333.024l-.333.333v-.356zm1.601.2c.435.088.857.21 1.27.35l-2.87 2.87v-1.62l.035-.035 1.565-1.565zm2.306.758c.365.167.72.353 1.061.559l-4.67 4.67c-.098-.017-.198-.028-.298-.04V6.41l3.907-3.907zm1.927 1.137c.352.26.693.535 1.011.835l-4.42 4.25a4.608 4.608 0 00-1.028-.648l4.437-4.437zm-6.403 5.045c.04.005.081.005.122 0a3.577 3.577 0 013.511 3.571 3.58 3.58 0 01-3.574 3.575 3.58 3.58 0 01-3.575-3.575c0-1.95 1.572-3.54 3.516-3.571z"/></svg>