<svg xmlns="http://www.w3.org/2000/svg" width="12" height="14" viewBox="0 0 12 14">
    <path fill="#727887" d="M11.298 7.486c-.321-.467-.762-.835-1.315-1.1.342-.24.62-.517.834-.83.34-.497.513-1.12.513-1.85 0-.665-.115-1.236-.34-1.699-.229-.47-.557-.853-.975-1.137C9.61.594 9.121.392 8.56.273 8.02.16 7.416.1 6.766.1H.546C.355.1.201.252.201.442v13.165c0 .188.154.341.343.341h6.406c.62 0 1.232-.079 1.819-.233.598-.158 1.14-.405 1.61-.733.48-.337.867-.777 1.151-1.308.284-.532.429-1.167.429-1.884 0-.89-.224-1.664-.662-2.304zM3.451 2.69h2.723c.259 0 .509.022.75.064.24.044.453.122.639.231.185.11.332.266.443.462.111.197.168.45.168.756 0 .553-.168.952-.501 1.198-.334.246-.76.37-1.278.37H3.451V2.69zm5.083 7.782c-.117.221-.275.396-.472.526-.198.129-.425.22-.685.277-.259.055-.53.083-.814.083H3.45V7.743h3.166c.631 0 1.136.145 1.52.433.382.29.574.773.574 1.449-.002.343-.06.626-.177.847z"/>
</svg>
