<svg xmlns="http://www.w3.org/2000/svg" width="14" height="14" viewBox="0 0 14 14">
    <path fill="#727887" d="M11 .001c-.768 0-1.537.293-2.122.878L7.212 2.546c-.831.83-1.068 2.03-.72 3.075L7.69 4.424c.05-.343.201-.673.464-.936l1.667-1.666c.325-.325.752-.488 1.179-.488.427 0 .854.163 1.178.488.65.65.65 1.707 0 2.356l-1.666 1.667c-.263.263-.593.414-.936.464L8.378 7.507c.31.103.632.158.955.158.768 0 1.536-.292 2.121-.877l1.667-1.667c1.17-1.17 1.17-3.072 0-4.242C12.536.294 11.768 0 11 0zM8.987 4.327c-.173.005-.338.077-.458.202l-4 4c-.175.167-.245.415-.184.649.061.233.244.416.477.477.234.06.482-.01.65-.184l4-4c.197-.191.256-.484.149-.738-.108-.253-.36-.414-.634-.406zM4.817 6.34c-.818-.041-1.648.248-2.271.87L.879 8.879c-1.17 1.17-1.17 3.073 0 4.243.585.585 1.353.877 2.121.877s1.536-.293 2.121-.878l1.667-1.666c.83-.83 1.068-2.03.72-3.076L6.308 9.576c-.05.343-.2.673-.464.936l-1.667 1.666c-.65.65-1.707.65-2.356 0-.65-.65-.65-1.707 0-2.356l1.666-1.667c.263-.263.593-.415.936-.465L5.62 6.493c-.261-.087-.532-.138-.805-.152z"/>
</svg>
