<svg xmlns="http://www.w3.org/2000/svg" width="18" height="14" viewBox="0 0 18 14">
    <path fill="#727887" d="M5.143 6.125H18v1.75H5.143v-1.75zm0-5.25H18v1.75H5.143V.875zm0 10.5H18v1.75H5.143v-1.75zM1.714 5.687C1.004 5.688.43 6.276.43 7s.575 1.313 1.285 1.313S3 7.724 3 7s-.576-1.313-1.286-1.313zm0 5.25c-.71 0-1.285.588-1.285 1.313s.575 1.313 1.285 1.313S3 12.975 3 12.25s-.576-1.313-1.286-1.313zm0-10.5C1.004.438.43 1.026.43 1.75s.575 1.313 1.285 1.313S3 2.474 3 1.75 2.424.437 1.714.437z"/>
</svg>
