<svg xmlns="http://www.w3.org/2000/svg" width="8" height="14" viewBox="0 0 8 14">
    <path fill="#727887" d="M4.658.596c-.05 0-.1.005-.15.013H2.667C2.427.606 2.203.72 2.08.91c-.12.19-.12.424 0 .613.122.19.345.305.586.302h.96L2.362 12.783h-1.03c-.24-.003-.464.112-.585.301-.121.19-.121.425 0 .614.121.19.345.305.585.302h4c.24.003.464-.112.586-.302.12-.19.12-.424 0-.614-.122-.19-.345-.304-.586-.301h-.96L5.638 1.826h1.03c.24.003.464-.112.585-.302.121-.19.121-.424 0-.613C7.13.72 6.907.606 6.667.609H4.829c-.056-.01-.114-.014-.171-.013z"/>
</svg>
