<svg xmlns="http://www.w3.org/2000/svg" width="24" height="24" viewBox="0 0 24 24">
    <path fill="#A0A8BB" d="M11.737.504c-.03 0-.058.003-.087.009C5.218.564 0 5.81 0 12.255 0 18.732 5.269 24 11.745 24c6.476 0 11.744-5.268 11.744-11.745 0-3.155-1.253-6.02-3.284-8.133V4.12l-.002-.001c-.538-.559-1.13-1.065-1.77-1.509-.057-.064-.13-.112-.212-.14C16.388 1.25 14.197.531 11.841.512h-.003c-.033-.007-.067-.01-.101-.01zm-.503 1.04V7.69c-2.294.256-4.085 2.205-4.085 4.566 0 2.535 2.062 4.596 4.596 4.596 1.083 0 2.079-.379 2.865-1.008l4.335 4.335c-1.905 1.733-4.428 2.8-7.2 2.8-5.914 0-10.724-4.81-10.724-10.723 0-5.741 4.536-10.442 10.213-10.71zm1.021 0c.112.006.223.015.333.024l-.333.333v-.356zm1.601.2c.435.088.857.21 1.27.35l-2.87 2.87v-1.62l.035-.035 1.565-1.565zm2.306.758c.365.167.72.353 1.061.559l-4.67 4.67c-.098-.017-.198-.028-.298-.04V6.41l3.907-3.907zm1.927 1.137c.352.26.693.535 1.011.835l-4.42 4.25c-.311-.26-.657-.477-1.028-.648l4.437-4.437zm-6.403 5.045c.04.005.081.005.122 0 1.941.034 3.511 1.622 3.511 3.571 0 1.97-1.603 3.575-3.574 3.575-1.971 0-3.575-1.604-3.575-3.575 0-1.95 1.572-3.54 3.516-3.571z"/>
</svg>
