<svg xmlns="http://www.w3.org/2000/svg" width="19" height="11"><path fill="#45668E" d="M15.183 6.267c.57.557 1.172 1.081 1.684 1.694.226.273.44.554.604.87.231.45.021.944-.382.97h-2.505c-.646.053-1.161-.207-1.594-.649-.347-.353-.668-.729-1.002-1.094-.137-.15-.28-.29-.45-.4-.343-.223-.64-.155-.835.202-.199.363-.244.764-.264 1.169-.026.59-.205.744-.797.771-1.266.06-2.468-.131-3.585-.77-.984-.563-1.747-1.358-2.411-2.258C2.352 5.019 1.362 3.093.47 1.114.271.668.418.428.91.42A66.808 66.808 0 013.362.419c.332.005.552.195.68.509a15.262 15.262 0 001.663 3.08c.18.255.365.51.627.69.29.199.512.133.649-.19.086-.206.124-.427.144-.646.065-.757.073-1.511-.04-2.265-.07-.47-.335-.774-.804-.863-.24-.046-.204-.135-.088-.271.201-.236.39-.383.768-.383h2.831c.446.088.545.288.606.737L10.4 3.96c-.004.174.087.69.4.804.25.082.415-.118.565-.277.678-.72 1.162-1.57 1.594-2.45.192-.387.357-.789.516-1.19.119-.299.305-.445.64-.439l2.725.003c.08 0 .163 0 .24.014.46.078.586.276.444.724-.223.704-.658 1.29-1.083 1.879-.455.628-.94 1.236-1.391 1.868-.414.578-.381.869.133 1.37z"/></svg>