<svg xmlns="http://www.w3.org/2000/svg" width="16" height="16"><path fill="#25D366" d="M8 .615C3.928.615.615 3.928.615 8c0 1.271.329 2.522.952 3.625l-.94 3.352a.324.324 0 00.309.408.347.347 0 00.078-.01l3.498-.866A7.393 7.393 0 008 15.385c4.072 0 7.385-3.313 7.385-7.385C15.385 3.928 12.072.615 8 .615zm3.715 9.99c-.158.438-.916.837-1.28.89a2.61 2.61 0 01-1.194-.073 11.089 11.089 0 01-1.081-.395C6.258 10.216 5.016 8.325 4.92 8.2c-.094-.125-.774-1.015-.774-1.936 0-.92.49-1.374.664-1.561a.7.7 0 01.505-.235c.127 0 .253.002.364.007.116.006.273-.044.427.321.158.375.537 1.297.584 1.39.047.094.079.204.016.329-.063.125-.095.203-.19.312-.095.11-.199.244-.284.328-.095.094-.194.195-.083.382.11.188.49.8 1.054 1.297.724.638 1.335.836 1.525.93.19.093.3.077.41-.048.11-.125.474-.546.6-.734.127-.187.253-.156.427-.093.174.062 1.106.515 1.296.608.19.094.316.141.363.22.048.077.048.452-.11.889z"/></svg>