<svg xmlns="http://www.w3.org/2000/svg" width="9" height="16" viewBox="0 0 9 16">
    <path fill="#3B5998" d="M8.319.618L6.42.615c-2.132 0-3.51 1.414-3.51 3.602v1.661H1.002c-.164 0-.298.134-.298.299v2.406c0 .165.134.298.298.298h1.909v6.072c0 .165.133.298.298.298H5.7c.165 0 .298-.134.298-.298V8.88H8.23c.164 0 .298-.133.298-.298V6.177c0-.08-.03-.155-.086-.211-.056-.057-.132-.088-.212-.088H5.997V4.47c0-.676.162-1.02 1.043-1.02h1.279c.164 0 .298-.134.298-.299V.917c0-.165-.134-.298-.298-.299z"/>
</svg>