<svg xmlns="http://www.w3.org/2000/svg" width="16" height="16" viewBox="0 0 16 16">
    <path fill="#25D366" d="M8 .615C3.928.615.615 3.928.615 8c0 1.271.329 2.522.952 3.625l-.94 3.352c-.03.11 0 .228.079.31.061.063.145.098.23.098.026 0 .052-.004.078-.01l3.498-.866c1.068.573 2.271.876 3.488.876 4.072 0 7.385-3.313 7.385-7.385C15.385 3.928 12.072.615 8 .615zm3.715 9.99c-.158.438-.916.837-1.28.89-.327.049-.74.07-1.194-.073-.276-.087-.629-.202-1.081-.395C6.258 10.216 5.016 8.325 4.92 8.2c-.094-.125-.774-1.015-.774-1.936 0-.92.49-1.374.664-1.561.174-.188.379-.235.505-.235.127 0 .253.002.364.007.116.006.273-.044.427.321.158.375.537 1.297.584 1.39.047.094.079.204.016.329-.063.125-.095.203-.19.312-.095.11-.199.244-.284.328-.095.094-.194.195-.083.382.11.188.49.8 1.054 1.297.724.638 1.335.836 1.525.93.19.093.3.077.41-.048.11-.125.474-.546.6-.734.127-.187.253-.156.427-.093.174.062 1.106.515 1.296.608.19.094.316.141.363.22.048.077.048.452-.11.889z"/>
</svg>