<svg xmlns="http://www.w3.org/2000/svg" width="24" height="21" viewBox="0 0 24 21">
    <path fill="#006ae4" d="M14.327 3.532c1.098.689 1.868 1.853 2.008 3.205.448.21.945.33 1.472.33 1.923 0 3.482-1.559 3.482-3.482 0-1.923-1.56-3.482-3.482-3.482-1.905 0-3.45 1.532-3.48 3.43zm-2.28 7.13c1.922 0 3.481-1.56 3.481-3.482 0-1.923-1.559-3.482-3.482-3.482-1.923 0-3.482 1.56-3.482 3.482 0 1.923 1.56 3.482 3.482 3.482zm1.476.237H10.57c-2.459 0-4.459 2-4.459 4.459v3.613l.01.057.248.078c2.346.733 4.385.977 6.062.977 3.277 0 5.176-.934 5.293-.994l.233-.117h.025v-3.614c0-2.458-2-4.459-4.458-4.459zm5.761-3.594h-2.932c-.031 1.173-.532 2.229-1.324 2.989 2.185.65 3.784 2.676 3.784 5.07v1.113c2.895-.106 4.563-.927 4.673-.982l.232-.118h.025v-3.614c0-2.458-2-4.458-4.458-4.458zM5.936 7.068c.681 0 1.315-.2 1.852-.538.17-1.113.768-2.086 1.62-2.748.004-.066.01-.13.01-.196 0-1.923-1.56-3.482-3.482-3.482-1.923 0-3.482 1.559-3.482 3.482 0 1.922 1.559 3.482 3.482 3.482zm3.127 3.226C8.275 9.538 7.776 8.487 7.74 7.32c-.109-.008-.216-.016-.327-.016H4.458C2 7.305 0 9.305 0 11.763v3.614l.01.055.248.079c1.882.587 3.562.858 5.02.944v-1.092c.001-2.393 1.6-4.419 3.785-5.07z"/>
</svg>
