<svg xmlns="http://www.w3.org/2000/svg" width="21" height="24" viewBox="0 0 21 24">
    <path fill="#006ae4" d="M1.655 0C.741 0 0 .74 0 1.655v18.207c0 .915.74 1.655 1.655 1.655h10.398c-.003.03-.01.055-.013.084-.347.17-.53.559-.441.935.09.377.428.641.815.636h.275c.089.015.18.015.27 0h6.35c.09.015.18.015.27 0h.283c.388.007.729-.258.819-.636.09-.378-.096-.767-.446-.936-.176-1.597-.907-2.59-1.576-3.393.67-.804 1.4-1.797 1.576-3.394.348-.17.532-.559.442-.935-.09-.377-.428-.641-.815-.637h-.286c-.046-.007-.094-.011-.14-.01-.04 0-.08.004-.12.01h-2.764V1.655C16.552.741 15.81 0 14.897 0H1.655zm2.483 4.966c.457 0 .828.37.828.827 0 .457-.371.828-.828.828-.457 0-.828-.371-.828-.828 0-.457.371-.827.828-.827zm3.31 0h4.966c.457 0 .827.37.827.827 0 .457-.37.828-.827.828H7.448c-.457 0-.827-.371-.827-.828 0-.457.37-.827.827-.827zm-3.31 3.31c.457 0 .828.37.828.827 0 .457-.371.828-.828.828-.457 0-.828-.37-.828-.828 0-.456.371-.827.828-.827zm3.31 0h4.966c.457 0 .827.37.827.827 0 .457-.37.828-.827.828H7.448c-.457 0-.827-.37-.827-.828 0-.456.37-.827.827-.827zm-3.31 3.31c.457 0 .828.371.828.828 0 .457-.371.827-.828.827-.457 0-.828-.37-.828-.827 0-.457.371-.828.828-.828zm3.31 0h4.966c.457 0 .827.371.827.828 0 .457-.37.827-.827.827H7.448c-.457 0-.827-.37-.827-.827 0-.457.37-.828.827-.828zm-3.31 3.31c.457 0 .828.371.828.828 0 .457-.371.828-.828.828-.457 0-.828-.371-.828-.828 0-.457.371-.827.828-.827zm3.31 0h4.605c.08.632.243 1.17.456 1.636-.033.004-.061.02-.095.02H7.448c-.457 0-.827-.371-.827-.828 0-.457.37-.827.827-.827zm6.267 0h4.846c-.185 1.307-.812 1.915-1.55 2.771l-.466.54.466.54c.738.856 1.365 1.464 1.55 2.77h-.593c-.555-.708-1.296-1.3-1.83-1.3s-1.275.592-1.83 1.3h-.593c.185-1.306.812-1.914 1.55-2.77l.466-.54-.466-.54c-.738-.856-1.365-1.464-1.55-2.77z"/>
</svg>
