<svg xmlns="http://www.w3.org/2000/svg" width="24" height="24" viewBox="0 0 24 24">
    <path fill="#006ae4" d="M20 0c-2.21 0-4 1.79-4 4 .002.281.033.561.094.836L7.012 9.377C6.254 8.504 5.156 8.002 4 8c-2.21 0-4 1.79-4 4s1.79 4 4 4c1.156-.001 2.255-.503 3.014-1.375l9.076 4.54c-.06.274-.09.554-.09.835 0 2.21 1.79 4 4 4s4-1.79 4-4-1.79-4-4-4c-1.156.001-2.255.503-3.014 1.375l-9.076-4.54c.06-.274.09-.554.09-.835-.002-.28-.033-.56-.094-.834l9.082-4.541C17.746 7.497 18.845 7.998 20 8c2.21 0 4-1.79 4-4s-1.79-4-4-4z"/>
</svg>
