<svg xmlns="http://www.w3.org/2000/svg" width="24" height="24" viewBox="0 0 24 24">
    <g fill="none">
        <path fill="#006ae4" d="M23.957 12C23.957 5.398 18.602.043 12 .043S.043 5.398.043 12 5.398 23.957 12 23.957 23.957 18.602 23.957 12z"/>
        <path fill="#FFF" d="M17.913 11.383l-8.429-5.18c-.231-.14-.535-.15-.77-.015-.242.135-.391.39-.391.665v10.313c0 .275.15.53.385.665.116.063.241.097.372.097.14 0 .274-.039.395-.111l8.429-5.137c.226-.135.366-.386.366-.646.01-.265-.13-.516-.357-.65z"/>
    </g>
</svg>
