<svg xmlns="http://www.w3.org/2000/svg" width="23" height="24" viewBox="0 0 23 24">
    <path fill="#006ae4" d="M11.265 0C8.564 0 6.367 2.196 6.367 4.898v.98H2.495L.429 24h21.673L20.036 5.878h-2.893v2.938c0 .812-.658 1.47-1.47 1.47-.109 0-.22-.008-.321-.03-.656-.148-1.148-.738-1.148-1.44 0-.637.411-1.174.98-1.377v1.377c0 .27.218.49.49.49.271 0 .49-.22.49-.49V4.898C16.163 2.196 13.966 0 11.264 0zm0 .98c2.16 0 3.919 1.758 3.919 3.918v.98H8.327v2.938c0 .812-.659 1.47-1.47 1.47-.109 0-.22-.008-.321-.03-.658-.148-1.148-.738-1.148-1.44 0-.637.411-1.174.98-1.377v1.377c0 .27.22.49.49.49.269 0 .489-.22.489-.49V4.898c0-2.16 1.758-3.918 3.918-3.918z"/>
</svg>
