<svg xmlns="http://www.w3.org/2000/svg" width="54" height="46"><path fill="#A0A8BB" d="M4.154 0A4.153 4.153 0 000 4.154v41.538h54V4.154A4.153 4.153 0 0049.846 0H4.154zm0 12.462h45.692v29.076H4.154V12.462zm24.992 4.125c-.988-.03-1.86.64-2.085 1.602l-4.154 16.616a2.078 2.078 0 104.032 1.006l4.154-16.616a2.078 2.078 0 00-1.947-2.608zm-12.571 2.081a2.077 2.077 0 00-1.688.95L9.967 27l4.92 7.383a2.076 2.076 0 003.613-.214 2.074 2.074 0 00-.157-2.09L14.956 27l3.387-5.079a2.078 2.078 0 00-1.768-3.253zm20.785 0a2.077 2.077 0 00-1.703 3.253L39.044 27l-3.387 5.079a2.076 2.076 0 103.456 2.304L44.033 27l-4.92-7.383a2.079 2.079 0 00-1.753-.949z"/></svg>