<svg xmlns="http://www.w3.org/2000/svg" width="53" height="72"><path fill="#A0A8BB" d="M26.182 0A19.594 19.594 0 006.545 19.636v8.904C2.482 33.153 0 39.188 0 45.818 0 60.278 11.723 72 26.182 72c14.459 0 26.182-11.723 26.182-26.182 0-6.63-2.483-12.665-6.546-17.278v-8.904A19.593 19.593 0 0026.182 0zm0 6.545c7.45 0 13.09 5.642 13.09 13.091v3.535a26.01 26.01 0 00-13.09-3.535 26.013 26.013 0 00-13.091 3.535v-3.535c0-7.449 5.641-13.09 13.09-13.09zm0 19.637c10.846 0 19.636 8.79 19.636 19.636s-8.79 19.637-19.636 19.637S6.545 56.664 6.545 45.818s8.791-19.636 19.637-19.636zm0 9.818c-3.6 0-6.546 2.945-6.546 6.545 0 2.406 1.33 4.493 3.273 5.632v10.732h6.546V48.177c1.944-1.14 3.272-3.226 3.272-5.632 0-3.6-2.945-6.545-6.545-6.545z"/></svg>