<svg xmlns="http://www.w3.org/2000/svg" width="24" height="24" viewBox="0 0 24 24">
    <g fill="#fff">
        <path d="M12 0c-1.551 0-2.813 1.308-2.813 2.86 0 1.55 1.262 2.812 2.813 2.812 1.551 0 2.813-1.261 2.813-2.813C14.813 1.31 13.55 0 12 0zM12 5.672c-2.714 0-4.922 2.208-4.922 4.922 0 .388.315.703.703.703h8.438c.388 0 .703-.315.703-.703 0-2.714-2.208-4.922-4.922-4.922zM19.031 12.703c-1.55 0-2.812 1.261-2.812 2.813 0 1.55 1.261 2.812 2.812 2.812s2.813-1.261 2.813-2.812c0-1.552-1.262-2.813-2.813-2.813zM19.031 18.328c-2.713 0-4.922 2.255-4.922 4.969 0 .389.315.703.704.703h8.484c.389 0 .703-.314.703-.703 0-2.714-2.255-4.969-4.969-4.969zM4.969 12.703c-1.551 0-2.813 1.261-2.813 2.813 0 1.55 1.262 2.812 2.813 2.812 1.55 0 2.812-1.261 2.812-2.812 0-1.552-1.261-2.813-2.812-2.813zM4.969 18.328C2.255 18.328 0 20.583 0 23.297c0 .389.314.703.703.703h8.485c.388 0 .703-.314.703-.703 0-2.714-2.209-4.969-4.922-4.969zM15.127 16.996l-2.424-1.212v-2.378c0-.388-.314-.703-.703-.703-.389 0-.703.315-.703.703v2.378l-2.424 1.212c-.347.174-.488.596-.314.943.172.345.592.49.943.315L12 17.004l2.498 1.25c.351.174.77.03.943-.315.174-.347.033-.77-.314-.943z"/>
    </g>
</svg>
