<svg xmlns="http://www.w3.org/2000/svg" width="23" height="24" viewBox="0 0 23 24">
    <g fill="#fff">
        <path d="M22.389 6.284l-4.5-6c-.282-.379-.917-.379-1.2 0l-4.5 6c-.171.228-.198.53-.07.785.127.254.385.415.67.415h2.25v8.727c0 1.82-1.265 3.652-2.63 5.359l-.955 1.195c-.197.247-.22.59-.056.858.137.227.381.36.64.36.049 0 .098-.004.148-.015 4.467-.89 7.353-4.771 7.353-9.883V7.483h2.25c.283 0 .543-.16.67-.413.128-.254.1-.559-.07-.787zM10.168 2.413l.956-1.193c.198-.246.22-.59.055-.86-.136-.226-.38-.36-.64-.36-.048 0-.098.004-.147.015-4.467.892-7.353 4.773-7.353 9.883V16.5H.789c-.284 0-.543.16-.67.414-.128.253-.1.56.07.786l4.5 6c.282.378.916.378 1.2 0l4.5-6c.17-.226.198-.531.07-.784-.127-.256-.385-.416-.67-.416h-2.25V7.773c0-1.821 1.264-3.652 2.63-5.36z"/>
    </g>
</svg>
