<svg xmlns="http://www.w3.org/2000/svg" width="24" height="24" viewBox="0 0 24 24">
    <path fill="#fff" d="M23.562 10.028l-3.084-.504c-.18-.618-.427-1.213-.736-1.776l1.8-2.566c.146-.207.12-.489-.058-.668l-2.03-2.028c-.18-.181-.465-.204-.673-.055l-2.527 1.816c-.568-.314-1.168-.563-1.79-.744L13.926.432c-.044-.25-.26-.432-.514-.432h-2.87c-.255 0-.473.185-.515.438L9.53 3.492c-.627.18-1.228.427-1.794.737l-2.52-1.8c-.208-.149-.491-.125-.672.055L2.515 4.512c-.18.179-.204.46-.059.668L4.23 7.717c-.316.571-.567 1.176-.75 1.805l-3.043.507c-.251.042-.436.26-.436.514v2.87c0 .253.182.47.43.514l3.043.54c.182.627.433 1.232.75 1.804l-1.795 2.512c-.148.207-.125.491.055.672l2.029 2.03c.178.18.46.204.668.059l2.54-1.78c.571.314 1.174.562 1.798.743l.51 3.058c.04.25.258.435.513.435h2.87c.253 0 .47-.182.513-.43l.545-3.073c.626-.185 1.225-.435 1.79-.75l2.56 1.796c.207.147.489.121.668-.058l2.029-2.03c.18-.18.204-.466.054-.674l-1.825-2.534c.31-.564.555-1.16.734-1.778l3.087-.542c.25-.044.432-.261.432-.514v-2.87c0-.255-.185-.473-.437-.515zM12 15.652c-2.017 0-3.652-1.635-3.652-3.652 0-2.017 1.635-3.652 3.652-3.652 2.017 0 3.652 1.635 3.652 3.652 0 2.017-1.635 3.652-3.652 3.652z"/>
</svg>
