<svg width="18" height="19" viewBox="0 0 18 19" fill="none" xmlns="http://www.w3.org/2000/svg">
<path d="M17.672 7.522L15.359 7.144C15.224 6.68 15.039 6.234 14.807 5.811L16.157 3.887C16.267 3.732 16.247 3.52 16.113 3.385L14.591 1.865C14.456 1.729 14.241 1.711 14.086 1.824L12.191 3.186C11.765 2.95 11.315 2.763 10.848 2.627L10.444 0.324C10.411 0.137 10.249 0 10.059 0H7.90599C7.71499 0 7.55099 0.139 7.51999 0.328L7.146 2.619C6.676 2.754 6.22599 2.939 5.80099 3.172L3.911 1.822C3.755 1.71 3.54199 1.728 3.40599 1.863L1.88599 3.384C1.75099 3.519 1.732 3.73 1.842 3.885L3.172 5.788C2.935 6.217 2.74599 6.67 2.60899 7.142L0.326996 7.522C0.137996 7.554 0 7.717 0 7.908V10.061C0 10.251 0.135998 10.413 0.322998 10.446L2.605 10.851C2.741 11.321 2.92999 11.775 3.16699 12.205L1.821 14.088C1.71 14.244 1.727 14.457 1.862 14.593L3.38399 16.115C3.51799 16.25 3.72999 16.268 3.88499 16.159L5.791 14.824C6.219 15.059 6.67099 15.246 7.13899 15.382L7.521 17.675C7.551 17.863 7.71499 18.002 7.90599 18.002H10.059C10.249 18.002 10.411 17.865 10.444 17.679L10.853 15.374C11.323 15.236 11.772 15.048 12.195 14.812L14.115 16.159C14.27 16.269 14.482 16.249 14.616 16.115L16.138 14.593C16.273 14.457 16.291 14.243 16.178 14.087L14.81 12.187C15.042 11.764 15.226 11.317 15.36 10.853L17.676 10.446C17.864 10.413 18 10.25 18 10.061V7.908C18 7.716 17.861 7.553 17.672 7.522V7.522ZM8.99899 11.74C7.48599 11.74 6.25899 10.514 6.25899 9C6.25899 7.488 7.48599 6.261 8.99899 6.261C10.512 6.261 11.739 7.488 11.739 9.001C11.739 10.514 10.512 11.741 8.99899 11.741V11.74Z" fill="white"/>
</svg>
