<svg width="18" height="19" fill="none" xmlns="http://www.w3.org/2000/svg"><path d="M17.672 7.522l-2.313-.378a6.609 6.609 0 00-.552-1.333l1.35-1.924a.392.392 0 00-.044-.502l-1.522-1.52a.39.39 0 00-.505-.041l-1.895 1.362a6.547 6.547 0 00-1.343-.559L10.444.324A.391.391 0 0010.059 0H7.906a.392.392 0 00-.386.328l-.374 2.291c-.47.135-.92.32-1.345.553l-1.89-1.35a.392.392 0 00-.505.041l-1.52 1.521a.39.39 0 00-.044.501l1.33 1.903a6.606 6.606 0 00-.563 1.354l-2.282.38A.392.392 0 000 7.908v2.153c0 .19.136.352.323.385l2.282.405c.136.47.325.924.562 1.354l-1.346 1.883a.393.393 0 00.041.505l1.522 1.522a.39.39 0 00.501.044l1.906-1.335c.428.235.88.422 1.348.558l.382 2.293a.39.39 0 00.385.327h2.153c.19 0 .352-.137.385-.323l.409-2.305a6.52 6.52 0 001.342-.562l1.92 1.347a.39.39 0 00.501-.044l1.522-1.522a.392.392 0 00.04-.506l-1.368-1.9c.232-.423.416-.87.55-1.334l2.316-.407a.391.391 0 00.324-.385V7.908a.391.391 0 00-.328-.386zM8.999 11.74a2.74 2.74 0 110-5.481 2.74 2.74 0 010 5.482v-.001z" fill="#fff"/></svg>