<svg xmlns="http://www.w3.org/2000/svg" width="14" height="14"><path fill="#727887" d="M11 .001c-.768 0-1.537.293-2.122.878L7.212 2.546a3.002 3.002 0 00-.72 3.075L7.69 4.424a1.65 1.65 0 01.464-.936l1.667-1.666A1.663 1.663 0 0111 1.334a1.667 1.667 0 011.178 2.844l-1.666 1.667a1.65 1.65 0 01-.936.464L8.378 7.507a2.99 2.99 0 003.076-.719l1.667-1.667A3.002 3.002 0 0011 0zM8.987 4.327a.661.661 0 00-.458.202l-4 4a.664.664 0 00.293 1.126c.234.06.482-.01.65-.184l4-4a.667.667 0 00-.485-1.144zM4.817 6.34a2.99 2.99 0 00-2.271.87L.879 8.879a3.003 3.003 0 000 4.243c.585.585 1.353.877 2.121.877s1.536-.293 2.121-.878l1.667-1.666c.83-.83 1.068-2.03.72-3.076l-1.2 1.197c-.05.343-.2.673-.464.936l-1.667 1.666a1.667 1.667 0 01-2.356-2.356l1.666-1.667a1.65 1.65 0 01.936-.465L5.62 6.493a3.039 3.039 0 00-.805-.152z"/></svg>