<svg xmlns="http://www.w3.org/2000/svg" width="12" height="14"><path fill="#727887" d="M11.298 7.486a3.28 3.28 0 00-1.315-1.1c.342-.24.62-.517.834-.83.34-.497.513-1.12.513-1.85 0-.665-.115-1.236-.34-1.699A2.876 2.876 0 0010.015.87 4.064 4.064 0 008.56.273 8.809 8.809 0 006.766.1H.546a.343.343 0 00-.345.342v13.165c0 .188.154.341.343.341H6.95c.62 0 1.232-.079 1.819-.233a5.058 5.058 0 001.61-.733c.48-.337.867-.777 1.151-1.308.284-.532.429-1.167.429-1.884 0-.89-.224-1.664-.662-2.304zM3.451 2.69h2.723c.259 0 .509.022.75.064.24.044.453.122.639.231.185.11.332.266.443.462.111.197.168.45.168.756 0 .553-.168.952-.501 1.198-.334.246-.76.37-1.278.37H3.451V2.69zm5.083 7.782a1.406 1.406 0 01-.472.526c-.198.129-.425.22-.685.277-.259.055-.53.083-.814.083H3.45V7.743h3.166c.631 0 1.136.145 1.52.433.382.29.574.773.574 1.449-.002.343-.06.626-.177.847z"/></svg>