<svg xmlns="http://www.w3.org/2000/svg" width="54" height="46" viewBox="0 0 54 46">
    <path fill="#A0A8BB" d="M4.154 0C1.859 0 0 1.859 0 4.154v41.538h54V4.154C54 1.859 52.141 0 49.846 0H4.154zm0 12.462h45.692v29.076H4.154V12.462zm24.992 4.125c-.988-.03-1.86.64-2.085 1.602l-4.154 16.616c-.18.72.038 1.482.572 1.998.534.515 1.303.707 2.017.503.713-.205 1.264-.775 1.443-1.495l4.154-16.616c.162-.613.036-1.266-.343-1.774-.38-.508-.97-.815-1.604-.834zm-12.571 2.081c-.685.019-1.316.374-1.688.95L9.967 27l4.92 7.383c.406.63 1.12.993 1.87.948.748-.044 1.414-.488 1.743-1.162.329-.674.27-1.473-.157-2.09L14.956 27l3.387-5.079c.443-.644.487-1.482.114-2.169-.374-.687-1.1-1.106-1.882-1.084zm20.785 0c-.77.003-1.474.432-1.831 1.113-.358.682-.308 1.506.128 2.14L39.044 27l-3.387 5.079c-.426.617-.486 1.416-.157 2.09.329.674.995 1.118 1.744 1.162.748.045 1.463-.318 1.869-.948L44.033 27l-4.92-7.383c-.385-.594-1.045-.952-1.753-.949z"/>
</svg>
