<svg xmlns="http://www.w3.org/2000/svg" width="10" height="10" viewBox="0 0 10 10">
    <path fill="#FFF" d="M1.49.49c-.407 0-.773.248-.926.624-.153.377-.063.81.229 1.093L3.586 5 .793 7.793c-.261.25-.367.623-.275.974.091.35.365.624.715.715.35.092.723-.014.974-.275L5 6.414l2.793 2.793c.25.261.623.367.974.275.35-.091.624-.365.715-.715.092-.35-.014-.723-.275-.974L6.414 5l2.793-2.793c.296-.287.385-.727.224-1.107-.16-.38-.538-.622-.95-.61-.26.008-.507.117-.688.303L5 3.586 2.207.793C2.019.599 1.76.49 1.489.49z"/>
</svg>
