<svg xmlns="http://www.w3.org/2000/svg" width="31" height="31" viewBox="0 0 31 31">
    <path fill="#006AE4" d="M15.5 0C6.94 0 0 6.94 0 15.5 0 24.06 6.94 31 15.5 31 24.06 31 31 24.06 31 15.5 31 6.94 24.06 0 15.5 0zm6.458 16.792h-5.166v5.166c0 .715-.579 1.292-1.292 1.292-.713 0-1.292-.577-1.292-1.292v-5.166H9.042c-.713 0-1.292-.578-1.292-1.292 0-.714.579-1.292 1.292-1.292h5.166V9.042c0-.715.579-1.292 1.292-1.292.713 0 1.292.577 1.292 1.292v5.166h5.166c.713 0 1.292.578 1.292 1.292 0 .714-.579 1.292-1.292 1.292z" />
</svg>