<svg width="19" height="19" viewBox="0 0 19 19" fill="none" xmlns="http://www.w3.org/2000/svg">
<path d="M18.855 7.31065C18.7319 6.92981 18.3941 6.65931 17.9945 6.62329L12.5659 6.13038L10.4194 1.10608C10.2611 0.737862 9.90061 0.499512 9.5001 0.499512C9.0996 0.499512 8.73913 0.737862 8.58085 1.10694L6.43426 6.13038L1.00486 6.62329C0.605938 6.66017 0.269004 6.92981 0.145165 7.31065C0.0213258 7.69149 0.135694 8.10922 0.437471 8.37254L4.5408 11.9712L3.33083 17.3011C3.24229 17.693 3.3944 18.0981 3.71956 18.3332C3.89434 18.4594 4.09883 18.5237 4.30504 18.5237C4.48283 18.5237 4.65919 18.4758 4.81747 18.3811L9.5001 15.5825L14.181 18.3811C14.5235 18.5872 14.9553 18.5684 15.2798 18.3332C15.6051 18.0974 15.7571 17.6922 15.6685 17.3011L14.4585 11.9712L18.5619 8.37325C18.8636 8.10922 18.9789 7.69221 18.855 7.31065V7.31065Z" fill="#FFC107"/>
</svg>
